<svg width="28" height="27" viewBox="0 0 28 27" fill="none" xmlns="http://www.w3.org/2000/svg">
<path d="M22.1667 21.375V9H5.83333V21.375H22.1667ZM18.6667 1.125H21V3.375H22.1667C22.7855 3.375 23.379 3.61205 23.8166 4.03401C24.2542 4.45597 24.5 5.02826 24.5 5.625V21.375C24.5 22.6237 23.4617 23.625 22.1667 23.625H5.83333C5.21449 23.625 4.621 23.3879 4.18342 22.966C3.74583 22.544 3.5 21.9717 3.5 21.375V5.625C3.5 4.37625 4.53833 3.375 5.83333 3.375H7V1.125H9.33333V3.375H18.6667V1.125ZM12.8333 10.6875H15.1667V14.0625H18.6667V16.3125H15.1667V19.6875H12.8333V16.3125H9.33333V14.0625H12.8333V10.6875Z" fill="#4D089A"/>
</svg>
