<svg width="27" height="28" viewBox="0 0 27 28" fill="none" xmlns="http://www.w3.org/2000/svg">
<path d="M23.625 4.66667H2.25V7H4.8375L8.5275 17.5C8.7596 18.1808 9.18908 18.7705 9.75705 19.1882C10.325 19.606 11.0037 19.8313 11.7 19.8333H21.375V17.5H11.7C11.4688 17.4999 11.2432 17.4259 11.054 17.2882C10.8648 17.1504 10.7211 16.9555 10.6425 16.73L10.125 15.1667H20.565C21.0533 15.1659 21.5281 15.0005 21.9177 14.6953C22.3074 14.3902 22.5907 13.9618 22.725 13.475L24.75 6.14834C24.7957 5.99513 24.8105 5.8338 24.7934 5.67441C24.7763 5.51501 24.7277 5.36099 24.6507 5.22195C24.5736 5.0829 24.4697 4.96183 24.3455 4.86629C24.2213 4.77075 24.0794 4.7028 23.9288 4.66667C23.8282 4.64968 23.7256 4.64968 23.625 4.66667ZM20.5312 12.8333H9.28125L7.23375 7H22.1288L20.5312 12.8333Z" fill="#323EDD"/>
<path d="M11.8125 24.5C12.7445 24.5 13.5 23.7165 13.5 22.75C13.5 21.7835 12.7445 21 11.8125 21C10.8805 21 10.125 21.7835 10.125 22.75C10.125 23.7165 10.8805 24.5 11.8125 24.5Z" fill="#323EDD"/>
<path d="M18.5625 24.5C19.4945 24.5 20.25 23.7165 20.25 22.75C20.25 21.7835 19.4945 21 18.5625 21C17.6305 21 16.875 21.7835 16.875 22.75C16.875 23.7165 17.6305 24.5 18.5625 24.5Z" fill="#323EDD"/>
</svg>
