<svg width="28" height="24" viewBox="0 0 28 24" fill="none" xmlns="http://www.w3.org/2000/svg">
<path d="M23.3333 10C23.3333 9.73478 23.2104 9.48043 22.9916 9.29289C22.7728 9.10536 22.4761 9 22.1666 9C21.8572 9 21.5605 9.10536 21.3417 9.29289C21.1229 9.48043 21 9.73478 21 10H23.3333ZM6.99997 10C6.99997 9.73478 6.87706 9.48043 6.65826 9.29289C6.43947 9.10536 6.14273 9 5.83331 9C5.52389 9 5.22714 9.10536 5.00835 9.29289C4.78956 9.48043 4.66664 9.73478 4.66664 10H6.99997ZM23.6751 12.707C23.8952 12.8892 24.1899 12.99 24.4958 12.9877C24.8017 12.9854 25.0943 12.8802 25.3106 12.6948C25.5269 12.5094 25.6496 12.2586 25.6523 11.9964C25.6549 11.7342 25.5373 11.4816 25.3248 11.293L23.6751 12.707ZM14 3L14.8248 2.293C14.606 2.10553 14.3093 2.00021 14 2.00021C13.6906 2.00021 13.3939 2.10553 13.1751 2.293L14 3ZM2.67514 11.293C2.56371 11.3852 2.47483 11.4956 2.41369 11.6176C2.35254 11.7396 2.32036 11.8708 2.31901 12.0036C2.31767 12.1364 2.34719 12.2681 2.40585 12.391C2.46451 12.5139 2.55114 12.6255 2.66068 12.7194C2.77022 12.8133 2.90048 12.8875 3.04386 12.9378C3.18724 12.9881 3.34087 13.0134 3.49577 13.0123C3.65068 13.0111 3.80377 12.9835 3.94611 12.9311C4.08845 12.8787 4.21718 12.8025 4.32481 12.707L2.67514 11.293ZM8.16664 22H19.8333V20H8.16664V22ZM23.3333 19V10H21V19H23.3333ZM6.99997 19V10H4.66664V19H6.99997ZM25.3248 11.293L14.8248 2.293L13.1751 3.707L23.6751 12.707L25.3248 11.293ZM13.1751 2.293L2.67514 11.293L4.32481 12.707L14.8248 3.707L13.1751 2.293ZM19.8333 22C20.7616 22 21.6518 21.6839 22.3082 21.1213C22.9646 20.5587 23.3333 19.7956 23.3333 19H21C21 19.2652 20.8771 19.5196 20.6583 19.7071C20.4395 19.8946 20.1427 20 19.8333 20V22ZM8.16664 20C7.85722 20 7.56047 19.8946 7.34168 19.7071C7.12289 19.5196 6.99997 19.2652 6.99997 19H4.66664C4.66664 19.7956 5.03539 20.5587 5.69177 21.1213C6.34814 21.6839 7.23838 22 8.16664 22V20Z" fill="#DC2ADE"/>
</svg>
