<svg width="24" height="24" viewBox="0 0 24 24" fill="none" xmlns="http://www.w3.org/2000/svg">
<path d="M12 20.75C11.8011 20.75 11.6103 20.671 11.4697 20.5303C11.329 20.3897 11.25 20.1989 11.25 20C11.25 19.8011 11.329 19.6103 11.4697 19.4697C11.6103 19.329 11.8011 19.25 12 19.25C13.9228 19.25 15.7669 18.4862 17.1265 17.1265C18.4862 15.7669 19.25 13.9228 19.25 12C19.25 10.0772 18.4862 8.23311 17.1265 6.87348C15.7669 5.51384 13.9228 4.75 12 4.75C11.8011 4.75 11.6103 4.67098 11.4697 4.53033C11.329 4.38968 11.25 4.19891 11.25 4C11.25 3.80109 11.329 3.61032 11.4697 3.46967C11.6103 3.32902 11.8011 3.25 12 3.25C14.3206 3.25 16.5462 4.17187 18.1872 5.81281C19.8281 7.45376 20.75 9.67936 20.75 12C20.75 14.3206 19.8281 16.5462 18.1872 18.1872C16.5462 19.8281 14.3206 20.75 12 20.75Z" fill="#DC2ADE"/>
<path d="M7.53 14.47C7.66248 14.6122 7.7346 14.8002 7.73117 14.9945C7.72775 15.1888 7.64903 15.3742 7.51162 15.5116C7.37421 15.649 7.18882 15.7277 6.99452 15.7312C6.80022 15.7346 6.61217 15.6625 6.47 15.53L3.47 12.53C3.32955 12.3894 3.25066 12.1988 3.25066 12C3.25066 11.8012 3.32955 11.6106 3.47 11.47L6.47 8.47C6.53866 8.39631 6.62146 8.33721 6.71346 8.29622C6.80546 8.25523 6.90478 8.23319 7.00548 8.23141C7.10618 8.22963 7.20621 8.24816 7.2996 8.28588C7.39298 8.3236 7.47782 8.37974 7.54904 8.45096C7.62026 8.52218 7.6764 8.60701 7.71412 8.7004C7.75184 8.79379 7.77037 8.89382 7.76859 8.99452C7.76681 9.09523 7.74477 9.19454 7.70378 9.28654C7.66279 9.37854 7.60369 9.46134 7.53 9.53L5.81 11.25L14 11.25C14.1989 11.25 14.3897 11.329 14.5303 11.4697C14.671 11.6103 14.75 11.8011 14.75 12C14.75 12.1989 14.671 12.3897 14.5303 12.5303C14.3897 12.671 14.1989 12.75 14 12.75L5.81 12.75L7.53 14.47Z" fill="#DC2ADE"/>
</svg>
