<svg xmlns="http://www.w3.org/2000/svg" xmlns:xlink="http://www.w3.org/1999/xlink" width="800" zoomAndPan="magnify" viewBox="0 0 600 599.999999" height="800" preserveAspectRatio="xMidYMid meet" version="1.0"><defs><g/><clipPath id="1ff16dd16e"><path d="M 128 202.171875 L 241.175781 202.171875 L 241.175781 353.671875 L 128 353.671875 Z M 128 202.171875 " clip-rule="nonzero"/></clipPath><clipPath id="b833716502"><path d="M 430.800781 202.171875 L 470.511719 202.171875 L 470.511719 353.671875 L 430.800781 353.671875 Z M 430.800781 202.171875 " clip-rule="nonzero"/></clipPath></defs><g clip-path="url(#1ff16dd16e)"><path fill="#dc2ade" d="M 140.625 202.171875 C 133.707031 202.171875 128.039062 207.855469 128.039062 214.796875 L 128.039062 258.984375 L 131.1875 258.984375 C 141.648438 258.984375 150.066406 267.429688 150.066406 277.921875 C 150.066406 288.410156 141.648438 296.859375 131.1875 296.859375 L 128.039062 296.859375 L 128.039062 341.046875 C 128.039062 347.984375 133.707031 353.671875 140.625 353.671875 L 335.722656 353.671875 C 342.644531 353.671875 348.308594 347.984375 348.308594 341.046875 L 348.308594 296.859375 L 345.164062 296.859375 C 334.703125 296.859375 326.28125 288.410156 326.28125 277.921875 C 326.28125 267.429688 334.703125 258.984375 345.164062 258.984375 L 348.308594 258.984375 L 348.308594 214.796875 C 348.308594 207.855469 342.644531 202.171875 335.722656 202.171875 Z M 140.625 208.484375 L 187.828125 208.484375 C 187.828125 210.222656 189.242188 211.640625 190.972656 211.640625 C 192.707031 211.640625 194.121094 210.222656 194.121094 208.484375 L 335.722656 208.484375 C 339.238281 208.484375 342.015625 211.269531 342.015625 214.796875 L 342.015625 253.3125 C 329.699219 254.9375 319.988281 265.132812 319.988281 277.921875 C 319.988281 290.707031 329.699219 300.902344 342.015625 302.527344 L 342.015625 341.046875 C 342.015625 344.570312 339.238281 347.359375 335.722656 347.359375 L 194.121094 347.359375 C 194.121094 345.617188 192.707031 344.203125 190.972656 344.203125 C 189.242188 344.203125 187.828125 345.617188 187.828125 347.359375 L 140.625 347.359375 C 137.109375 347.359375 134.332031 344.570312 134.332031 341.046875 L 134.332031 302.527344 C 146.648438 300.902344 156.359375 290.707031 156.359375 277.921875 C 156.359375 265.132812 146.648438 254.9375 134.332031 253.3125 L 134.332031 214.796875 C 134.332031 211.269531 137.109375 208.484375 140.625 208.484375 Z M 190.972656 217.953125 C 189.242188 217.953125 187.828125 219.367188 187.828125 221.109375 C 187.828125 222.847656 189.242188 224.265625 190.972656 224.265625 C 192.707031 224.265625 194.121094 222.847656 194.121094 221.109375 C 194.121094 219.367188 192.707031 217.953125 190.972656 217.953125 Z M 190.972656 230.578125 C 189.242188 230.578125 187.828125 231.992188 187.828125 233.734375 C 187.828125 235.472656 189.242188 236.890625 190.972656 236.890625 C 192.707031 236.890625 194.121094 235.472656 194.121094 233.734375 C 194.121094 231.992188 192.707031 230.578125 190.972656 230.578125 Z M 190.972656 243.203125 C 189.242188 243.203125 187.828125 244.617188 187.828125 246.359375 C 187.828125 248.097656 189.242188 249.515625 190.972656 249.515625 C 192.707031 249.515625 194.121094 248.097656 194.121094 246.359375 C 194.121094 244.617188 192.707031 243.203125 190.972656 243.203125 Z M 190.972656 255.828125 C 189.242188 255.828125 187.828125 257.242188 187.828125 258.984375 C 187.828125 260.722656 189.242188 262.140625 190.972656 262.140625 C 192.707031 262.140625 194.121094 260.722656 194.121094 258.984375 C 194.121094 257.242188 192.707031 255.828125 190.972656 255.828125 Z M 190.972656 268.453125 C 189.242188 268.453125 187.828125 269.867188 187.828125 271.609375 C 187.828125 273.347656 189.242188 274.765625 190.972656 274.765625 C 192.707031 274.765625 194.121094 273.347656 194.121094 271.609375 C 194.121094 269.867188 192.707031 268.453125 190.972656 268.453125 Z M 190.972656 281.078125 C 189.242188 281.078125 187.828125 282.492188 187.828125 284.234375 C 187.828125 285.972656 189.242188 287.390625 190.972656 287.390625 C 192.707031 287.390625 194.121094 285.972656 194.121094 284.234375 C 194.121094 282.492188 192.707031 281.078125 190.972656 281.078125 Z M 190.972656 293.703125 C 189.242188 293.703125 187.828125 295.117188 187.828125 296.859375 C 187.828125 298.597656 189.242188 300.015625 190.972656 300.015625 C 192.707031 300.015625 194.121094 298.597656 194.121094 296.859375 C 194.121094 295.117188 192.707031 293.703125 190.972656 293.703125 Z M 190.972656 306.328125 C 189.242188 306.328125 187.828125 307.742188 187.828125 309.484375 C 187.828125 311.222656 189.242188 312.640625 190.972656 312.640625 C 192.707031 312.640625 194.121094 311.222656 194.121094 309.484375 C 194.121094 307.742188 192.707031 306.328125 190.972656 306.328125 Z M 190.972656 318.953125 C 189.242188 318.953125 187.828125 320.367188 187.828125 322.109375 C 187.828125 323.847656 189.242188 325.265625 190.972656 325.265625 C 192.707031 325.265625 194.121094 323.847656 194.121094 322.109375 C 194.121094 320.367188 192.707031 318.953125 190.972656 318.953125 Z M 190.972656 331.578125 C 189.242188 331.578125 187.828125 332.992188 187.828125 334.734375 C 187.828125 336.472656 189.242188 337.890625 190.972656 337.890625 C 192.707031 337.890625 194.121094 336.472656 194.121094 334.734375 C 194.121094 332.992188 192.707031 331.578125 190.972656 331.578125 Z M 190.972656 331.578125 " fill-opacity="1" fill-rule="nonzero"/></g><g fill="#dc2ade" fill-opacity="1"><g transform="translate(236.900236, 250.280537)"><g><path d="M 30.125 -43.78125 C 30.789062 -44.125 31.84375 -44.523438 33.28125 -44.984375 C 34.71875 -45.453125 36.175781 -45.71875 37.65625 -45.78125 C 40.25 -45.894531 42.425781 -45.601562 44.1875 -44.90625 C 45.945312 -44.21875 47.039062 -43.132812 47.46875 -41.65625 C 48.269531 -39.15625 49.007812 -36.820312 49.6875 -34.65625 C 50.363281 -32.488281 51.019531 -30.414062 51.65625 -28.4375 C 52.300781 -26.457031 52.929688 -24.488281 53.546875 -22.53125 C 54.160156 -20.582031 54.757812 -18.535156 55.34375 -16.390625 L 55.796875 -16.40625 C 56.203125 -20.207031 56.546875 -23.828125 56.828125 -27.265625 C 57.117188 -30.703125 57.375 -34.082031 57.59375 -37.40625 C 57.8125 -40.726562 58.035156 -44.015625 58.265625 -47.265625 C 58.503906 -50.523438 58.738281 -53.835938 58.96875 -57.203125 C 61.1875 -58.585938 63.59375 -59.335938 66.1875 -59.453125 C 68.476562 -59.546875 70.476562 -59.132812 72.1875 -58.21875 C 73.894531 -57.300781 74.796875 -55.671875 74.890625 -53.328125 C 74.953125 -51.960938 74.898438 -50.023438 74.734375 -47.515625 C 74.566406 -45.015625 74.316406 -42.207031 73.984375 -39.09375 C 73.660156 -35.976562 73.257812 -32.710938 72.78125 -29.296875 C 72.3125 -25.878906 71.804688 -22.609375 71.265625 -19.484375 C 70.722656 -16.359375 70.144531 -13.53125 69.53125 -11 C 68.925781 -8.476562 68.347656 -6.523438 67.796875 -5.140625 C 66.898438 -4.234375 65.410156 -3.457031 63.328125 -2.8125 C 61.253906 -2.175781 59.113281 -1.8125 56.90625 -1.71875 C 54 -1.59375 51.523438 -1.867188 49.484375 -2.546875 C 47.441406 -3.234375 46.175781 -4.273438 45.6875 -5.671875 C 44.78125 -8.117188 43.789062 -11.015625 42.71875 -14.359375 C 41.65625 -17.710938 40.507812 -21.410156 39.28125 -25.453125 C 38.582031 -21.390625 37.851562 -17.425781 37.09375 -13.5625 C 36.332031 -9.707031 35.640625 -6.429688 35.015625 -3.734375 C 34.117188 -2.828125 32.753906 -2.054688 30.921875 -1.421875 C 29.097656 -0.796875 27.078125 -0.429688 24.859375 -0.328125 C 22.078125 -0.210938 19.539062 -0.488281 17.25 -1.15625 C 14.96875 -1.832031 13.457031 -2.863281 12.71875 -4.25 C 12.101562 -5.34375 11.425781 -6.96875 10.6875 -9.125 C 9.945312 -11.289062 9.175781 -13.765625 8.375 -16.546875 C 7.582031 -19.328125 6.757812 -22.335938 5.90625 -25.578125 C 5.0625 -28.816406 4.273438 -32.0625 3.546875 -35.3125 C 2.816406 -38.5625 2.132812 -41.734375 1.5 -44.828125 C 0.875 -47.921875 0.378906 -50.757812 0.015625 -53.34375 C 0.847656 -54.195312 2.019531 -54.992188 3.53125 -55.734375 C 5.050781 -56.484375 6.703125 -56.894531 8.484375 -56.96875 C 10.835938 -57.070312 12.789062 -56.644531 14.34375 -55.6875 C 15.90625 -54.726562 16.925781 -53.054688 17.40625 -50.671875 C 18.664062 -44.421875 19.707031 -39.207031 20.53125 -35.03125 C 21.351562 -30.851562 22.023438 -27.429688 22.546875 -24.765625 C 23.078125 -22.109375 23.460938 -20.039062 23.703125 -18.5625 C 23.953125 -17.082031 24.1875 -15.914062 24.40625 -15.0625 L 24.859375 -15.078125 C 25.304688 -17.566406 25.734375 -19.875 26.140625 -22 C 26.546875 -24.132812 26.960938 -26.273438 27.390625 -28.421875 C 27.828125 -30.566406 28.269531 -32.867188 28.71875 -35.328125 C 29.175781 -37.796875 29.644531 -40.613281 30.125 -43.78125 Z M 30.125 -43.78125 "/></g></g></g><g fill="#dc2ade" fill-opacity="1"><g transform="translate(316.816504, 246.841829)"><g><path d="M 23.65625 -11.03125 C 24.6875 -11.082031 25.832031 -11.238281 27.09375 -11.5 C 28.363281 -11.769531 29.296875 -12.109375 29.890625 -12.515625 L 29.578125 -19.9375 L 22.9375 -19.078125 C 21.21875 -18.878906 19.8125 -18.445312 18.71875 -17.78125 C 17.632812 -17.113281 17.117188 -16.164062 17.171875 -14.9375 C 17.222656 -13.695312 17.742188 -12.710938 18.734375 -11.984375 C 19.722656 -11.253906 21.363281 -10.9375 23.65625 -11.03125 Z M 21.34375 -47.390625 C 24.664062 -47.535156 27.71875 -47.328125 30.5 -46.765625 C 33.289062 -46.210938 35.679688 -45.285156 37.671875 -43.984375 C 39.671875 -42.679688 41.242188 -40.984375 42.390625 -38.890625 C 43.535156 -36.804688 44.171875 -34.3125 44.296875 -31.40625 L 45.1875 -10.65625 C 45.257812 -9.050781 44.867188 -7.722656 44.015625 -6.671875 C 43.160156 -5.617188 42.132812 -4.691406 40.9375 -3.890625 C 37.03125 -1.304688 31.4375 0.140625 24.15625 0.453125 C 20.875 0.585938 17.90625 0.40625 15.25 -0.09375 C 12.601562 -0.601562 10.3125 -1.4375 8.375 -2.59375 C 6.445312 -3.75 4.929688 -5.257812 3.828125 -7.125 C 2.722656 -8.988281 2.117188 -11.1875 2.015625 -13.71875 C 1.828125 -17.988281 2.945312 -21.316406 5.375 -23.703125 C 7.8125 -26.097656 11.675781 -27.6875 16.96875 -28.46875 L 29.03125 -30.28125 L 29 -30.9375 C 28.925781 -32.726562 28.085938 -33.972656 26.484375 -34.671875 C 24.878906 -35.378906 22.597656 -35.671875 19.640625 -35.546875 C 17.285156 -35.441406 15.003906 -35.09375 12.796875 -34.5 C 10.597656 -33.914062 8.625 -33.21875 6.875 -32.40625 C 6.039062 -32.914062 5.320312 -33.734375 4.71875 -34.859375 C 4.113281 -35.984375 3.785156 -37.160156 3.734375 -38.390625 C 3.660156 -40.003906 3.988281 -41.300781 4.71875 -42.28125 C 5.445312 -43.269531 6.601562 -44.140625 8.1875 -44.890625 C 9.945312 -45.640625 12.035156 -46.21875 14.453125 -46.625 C 16.878906 -47.039062 19.175781 -47.296875 21.34375 -47.390625 Z M 21.34375 -47.390625 "/></g></g></g><g fill="#dc2ade" fill-opacity="1"><g transform="translate(367.192464, 244.674209)"><g><path d="M 42.203125 -15.265625 C 42.398438 -10.578125 40.796875 -6.828125 37.390625 -4.015625 C 33.992188 -1.210938 28.867188 0.335938 22.015625 0.640625 C 19.421875 0.742188 17.003906 0.660156 14.765625 0.390625 C 12.523438 0.117188 10.601562 -0.367188 9 -1.078125 C 7.394531 -1.785156 6.117188 -2.707031 5.171875 -3.84375 C 4.222656 -4.976562 3.71875 -6.347656 3.65625 -7.953125 C 3.582031 -9.429688 3.832031 -10.691406 4.40625 -11.734375 C 4.988281 -12.785156 5.695312 -13.671875 6.53125 -14.390625 C 8.351562 -13.472656 10.441406 -12.675781 12.796875 -12 C 15.148438 -11.332031 17.84375 -11.066406 20.875 -11.203125 C 22.789062 -11.285156 24.238281 -11.625 25.21875 -12.21875 C 26.207031 -12.8125 26.679688 -13.570312 26.640625 -14.5 C 26.609375 -15.363281 26.210938 -16.023438 25.453125 -16.484375 C 24.703125 -16.953125 23.453125 -17.304688 21.703125 -17.546875 L 18.90625 -17.984375 C 13.488281 -18.796875 9.414062 -20.269531 6.6875 -22.40625 C 3.96875 -24.550781 2.519531 -27.722656 2.34375 -31.921875 C 2.238281 -34.210938 2.640625 -36.304688 3.546875 -38.203125 C 4.460938 -40.097656 5.785156 -41.695312 7.515625 -43 C 9.253906 -44.3125 11.359375 -45.359375 13.828125 -46.140625 C 16.304688 -46.929688 19.0625 -47.390625 22.09375 -47.515625 C 24.363281 -47.617188 26.507812 -47.539062 28.53125 -47.28125 C 30.5625 -47.03125 32.332031 -46.597656 33.84375 -45.984375 C 35.351562 -45.378906 36.5625 -44.554688 37.46875 -43.515625 C 38.382812 -42.472656 38.875 -41.210938 38.9375 -39.734375 C 39 -38.304688 38.789062 -37.066406 38.3125 -36.015625 C 37.832031 -34.972656 37.207031 -34.097656 36.4375 -33.390625 C 35.914062 -33.679688 35.148438 -33.972656 34.140625 -34.265625 C 33.140625 -34.566406 32.046875 -34.828125 30.859375 -35.046875 C 29.679688 -35.273438 28.488281 -35.457031 27.28125 -35.59375 C 26.070312 -35.726562 24.972656 -35.773438 23.984375 -35.734375 C 21.953125 -35.648438 20.382812 -35.351562 19.28125 -34.84375 C 18.1875 -34.332031 17.664062 -33.582031 17.71875 -32.59375 C 17.738281 -31.914062 18.066406 -31.375 18.703125 -30.96875 C 19.347656 -30.5625 20.539062 -30.207031 22.28125 -29.90625 L 25.171875 -29.390625 C 31.160156 -28.273438 35.453125 -26.582031 38.046875 -24.3125 C 40.648438 -22.050781 42.035156 -19.035156 42.203125 -15.265625 Z M 42.203125 -15.265625 "/></g></g></g><g fill="#dc2ade" fill-opacity="1"><g transform="translate(412.753081, 242.713787)"><g><path d="M 1.984375 -57.703125 C 1.878906 -60.046875 2.578125 -62.050781 4.078125 -63.71875 C 5.578125 -65.394531 7.628906 -66.289062 10.234375 -66.40625 C 12.828125 -66.519531 14.941406 -65.804688 16.578125 -64.265625 C 18.222656 -62.734375 19.097656 -60.796875 19.203125 -58.453125 C 19.296875 -56.109375 18.59375 -54.097656 17.09375 -52.421875 C 15.59375 -50.742188 13.546875 -49.847656 10.953125 -49.734375 C 8.347656 -49.617188 6.222656 -50.332031 4.578125 -51.875 C 2.941406 -53.414062 2.078125 -55.359375 1.984375 -57.703125 Z M 20.9375 -1 C 20.257812 -0.84375 19.257812 -0.628906 17.9375 -0.359375 C 16.613281 -0.0859375 15.273438 0.078125 13.921875 0.140625 C 12.554688 0.191406 11.332031 0.148438 10.25 0.015625 C 9.164062 -0.117188 8.238281 -0.445312 7.46875 -0.96875 C 6.707031 -1.5 6.101562 -2.234375 5.65625 -3.171875 C 5.21875 -4.109375 4.96875 -5.347656 4.90625 -6.890625 L 3.28125 -44.578125 C 3.957031 -44.734375 4.953125 -44.945312 6.265625 -45.21875 C 7.585938 -45.488281 8.925781 -45.65625 10.28125 -45.71875 C 11.644531 -45.769531 12.867188 -45.726562 13.953125 -45.59375 C 15.035156 -45.457031 15.960938 -45.125 16.734375 -44.59375 C 17.503906 -44.070312 18.109375 -43.34375 18.546875 -42.40625 C 18.992188 -41.476562 19.25 -40.242188 19.3125 -38.703125 Z M 20.9375 -1 "/></g></g></g><g fill="#e8f044" fill-opacity="1"><g transform="translate(211.147331, 294.726026)"><g><path d="M 44.421875 -13.671875 C 43.617188 -12.992188 42.585938 -12.457031 41.328125 -12.0625 C 40.078125 -11.664062 38.628906 -11.46875 36.984375 -11.46875 C 34.773438 -11.46875 32.953125 -11.742188 31.515625 -12.296875 C 30.078125 -12.847656 29.144531 -13.796875 28.71875 -15.140625 C 27.007812 -20.523438 25.601562 -24.882812 24.5 -28.21875 C 23.394531 -31.550781 22.539062 -34.472656 21.9375 -36.984375 L 21.46875 -36.984375 C 21.289062 -33.367188 21.15625 -30.078125 21.0625 -27.109375 C 20.96875 -24.148438 20.90625 -21.257812 20.875 -18.4375 C 20.84375 -15.625 20.78125 -12.78125 20.6875 -9.90625 C 20.601562 -7.03125 20.46875 -3.847656 20.28125 -0.359375 C 19.488281 -0.0546875 18.445312 0.195312 17.15625 0.40625 C 15.875 0.625 14.59375 0.734375 13.3125 0.734375 C 10.613281 0.734375 8.515625 0.304688 7.015625 -0.546875 C 5.515625 -1.398438 4.765625 -2.960938 4.765625 -5.234375 L 7.4375 -52.03125 C 7.925781 -52.820312 8.992188 -53.675781 10.640625 -54.59375 C 12.296875 -55.519531 14.625 -55.984375 17.625 -55.984375 C 20.863281 -55.984375 23.398438 -55.476562 25.234375 -54.46875 C 27.066406 -53.457031 28.410156 -51.816406 29.265625 -49.546875 C 29.816406 -48.078125 30.414062 -46.394531 31.0625 -44.5 C 31.707031 -42.601562 32.347656 -40.644531 32.984375 -38.625 C 33.628906 -36.613281 34.253906 -34.613281 34.859375 -32.625 C 35.472656 -30.632812 36.023438 -28.84375 36.515625 -27.25 L 36.984375 -27.25 C 38.453125 -32.394531 39.921875 -37.367188 41.390625 -42.171875 C 42.859375 -46.972656 44.203125 -50.992188 45.421875 -54.234375 C 46.335938 -54.722656 47.515625 -55.132812 48.953125 -55.46875 C 50.390625 -55.8125 52 -55.984375 53.78125 -55.984375 C 56.769531 -55.984375 59.210938 -55.535156 61.109375 -54.640625 C 63.003906 -53.753906 64.109375 -52.488281 64.421875 -50.84375 C 64.660156 -49.613281 64.914062 -47.726562 65.1875 -45.1875 C 65.46875 -42.65625 65.757812 -39.796875 66.0625 -36.609375 C 66.375 -33.429688 66.679688 -30.066406 66.984375 -26.515625 C 67.296875 -22.972656 67.585938 -19.5625 67.859375 -16.28125 C 68.140625 -13.007812 68.367188 -10.015625 68.546875 -7.296875 C 68.734375 -4.578125 68.859375 -2.484375 68.921875 -1.015625 C 67.878906 -0.398438 66.789062 0.0390625 65.65625 0.3125 C 64.519531 0.59375 63.066406 0.734375 61.296875 0.734375 C 58.972656 0.734375 57.015625 0.335938 55.421875 -0.453125 C 53.835938 -1.253906 52.984375 -2.816406 52.859375 -5.140625 C 52.492188 -11.804688 52.265625 -17.800781 52.171875 -23.125 C 52.078125 -28.445312 51.9375 -32.910156 51.75 -36.515625 L 51.296875 -36.515625 C 50.679688 -34.128906 49.789062 -31.128906 48.625 -27.515625 C 47.46875 -23.910156 46.066406 -19.296875 44.421875 -13.671875 Z M 44.421875 -13.671875 "/></g></g></g><g fill="#e8f044" fill-opacity="1"><g transform="translate(284.278968, 294.726026)"><g><path d="M 50.9375 -22.296875 C 50.9375 -18.503906 50.351562 -15.125 49.1875 -12.15625 C 48.019531 -9.1875 46.378906 -6.691406 44.265625 -4.671875 C 42.160156 -2.660156 39.640625 -1.132812 36.703125 -0.09375 C 33.765625 0.945312 30.492188 1.46875 26.890625 1.46875 C 23.273438 1.46875 20 0.921875 17.0625 -0.171875 C 14.125 -1.273438 11.597656 -2.851562 9.484375 -4.90625 C 7.378906 -6.957031 5.742188 -9.453125 4.578125 -12.390625 C 3.421875 -15.328125 2.84375 -18.628906 2.84375 -22.296875 C 2.84375 -25.910156 3.421875 -29.179688 4.578125 -32.109375 C 5.742188 -35.046875 7.378906 -37.539062 9.484375 -39.59375 C 11.597656 -41.644531 14.125 -43.21875 17.0625 -44.3125 C 20 -45.414062 23.273438 -45.96875 26.890625 -45.96875 C 30.492188 -45.96875 33.765625 -45.398438 36.703125 -44.265625 C 39.640625 -43.140625 42.160156 -41.550781 44.265625 -39.5 C 46.378906 -37.457031 48.019531 -34.96875 49.1875 -32.03125 C 50.351562 -29.09375 50.9375 -25.847656 50.9375 -22.296875 Z M 18.8125 -22.296875 C 18.8125 -18.566406 19.53125 -15.707031 20.96875 -13.71875 C 22.40625 -11.726562 24.410156 -10.734375 26.984375 -10.734375 C 29.546875 -10.734375 31.515625 -11.742188 32.890625 -13.765625 C 34.273438 -15.785156 34.96875 -18.628906 34.96875 -22.296875 C 34.96875 -25.972656 34.257812 -28.800781 32.84375 -30.78125 C 31.4375 -32.769531 29.453125 -33.765625 26.890625 -33.765625 C 24.316406 -33.765625 22.328125 -32.769531 20.921875 -30.78125 C 19.515625 -28.800781 18.8125 -25.972656 18.8125 -22.296875 Z M 18.8125 -22.296875 "/></g></g></g><g fill="#e8f044" fill-opacity="1"><g transform="translate(338.049538, 294.726026)"><g><path d="M 2.84375 -22.296875 C 2.84375 -26.335938 3.453125 -29.835938 4.671875 -32.796875 C 5.898438 -35.765625 7.597656 -38.226562 9.765625 -40.1875 C 11.941406 -42.144531 14.484375 -43.597656 17.390625 -44.546875 C 20.296875 -45.492188 23.429688 -45.96875 26.796875 -45.96875 C 28.015625 -45.96875 29.207031 -45.859375 30.375 -45.640625 C 31.539062 -45.429688 32.488281 -45.175781 33.21875 -44.875 L 33.21875 -59.734375 C 33.832031 -59.921875 34.8125 -60.117188 36.15625 -60.328125 C 37.5 -60.546875 38.875 -60.65625 40.28125 -60.65625 C 41.625 -60.65625 42.832031 -60.5625 43.90625 -60.375 C 44.976562 -60.195312 45.878906 -59.832031 46.609375 -59.28125 C 47.347656 -58.726562 47.898438 -57.976562 48.265625 -57.03125 C 48.628906 -56.082031 48.8125 -54.84375 48.8125 -53.3125 L 48.8125 -9.8125 C 48.8125 -6.9375 47.46875 -4.644531 44.78125 -2.9375 C 43.007812 -1.769531 40.710938 -0.742188 37.890625 0.140625 C 35.078125 1.023438 31.835938 1.46875 28.171875 1.46875 C 24.191406 1.46875 20.625 0.921875 17.46875 -0.171875 C 14.320312 -1.273438 11.660156 -2.867188 9.484375 -4.953125 C 7.316406 -7.035156 5.664062 -9.53125 4.53125 -12.4375 C 3.40625 -15.34375 2.84375 -18.628906 2.84375 -22.296875 Z M 28.90625 -33.765625 C 25.601562 -33.765625 23.0625 -32.816406 21.28125 -30.921875 C 19.507812 -29.023438 18.625 -26.148438 18.625 -22.296875 C 18.625 -18.503906 19.445312 -15.644531 21.09375 -13.71875 C 22.75 -11.789062 25.140625 -10.828125 28.265625 -10.828125 C 29.367188 -10.828125 30.363281 -10.992188 31.25 -11.328125 C 32.132812 -11.671875 32.820312 -12.054688 33.3125 -12.484375 L 33.3125 -32.671875 C 32.082031 -33.398438 30.613281 -33.765625 28.90625 -33.765625 Z M 28.90625 -33.765625 "/></g></g></g><g fill="#e8f044" fill-opacity="1"><g transform="translate(391.820108, 294.726026)"><g><path d="M 50.9375 -22.296875 C 50.9375 -18.503906 50.351562 -15.125 49.1875 -12.15625 C 48.019531 -9.1875 46.378906 -6.691406 44.265625 -4.671875 C 42.160156 -2.660156 39.640625 -1.132812 36.703125 -0.09375 C 33.765625 0.945312 30.492188 1.46875 26.890625 1.46875 C 23.273438 1.46875 20 0.921875 17.0625 -0.171875 C 14.125 -1.273438 11.597656 -2.851562 9.484375 -4.90625 C 7.378906 -6.957031 5.742188 -9.453125 4.578125 -12.390625 C 3.421875 -15.328125 2.84375 -18.628906 2.84375 -22.296875 C 2.84375 -25.910156 3.421875 -29.179688 4.578125 -32.109375 C 5.742188 -35.046875 7.378906 -37.539062 9.484375 -39.59375 C 11.597656 -41.644531 14.125 -43.21875 17.0625 -44.3125 C 20 -45.414062 23.273438 -45.96875 26.890625 -45.96875 C 30.492188 -45.96875 33.765625 -45.398438 36.703125 -44.265625 C 39.640625 -43.140625 42.160156 -41.550781 44.265625 -39.5 C 46.378906 -37.457031 48.019531 -34.96875 49.1875 -32.03125 C 50.351562 -29.09375 50.9375 -25.847656 50.9375 -22.296875 Z M 18.8125 -22.296875 C 18.8125 -18.566406 19.53125 -15.707031 20.96875 -13.71875 C 22.40625 -11.726562 24.410156 -10.734375 26.984375 -10.734375 C 29.546875 -10.734375 31.515625 -11.742188 32.890625 -13.765625 C 34.273438 -15.785156 34.96875 -18.628906 34.96875 -22.296875 C 34.96875 -25.972656 34.257812 -28.800781 32.84375 -30.78125 C 31.4375 -32.769531 29.453125 -33.765625 26.890625 -33.765625 C 24.316406 -33.765625 22.328125 -32.769531 20.921875 -30.78125 C 19.515625 -28.800781 18.8125 -25.972656 18.8125 -22.296875 Z M 18.8125 -22.296875 "/></g></g></g><g fill="#dc2ade" fill-opacity="1"><g transform="translate(219.618549, 338.929592)"><g><path d="M 66.183594 -51.039062 C 66.050781 -51.300781 66.050781 -51.953125 65.921875 -52.085938 C 65.398438 -53.652344 64.09375 -55.347656 62.65625 -56.652344 C 60.570312 -58.480469 58.480469 -59.003906 56.261719 -59.523438 C 54.957031 -59.65625 54.042969 -59.265625 52.996094 -59.265625 C 51.953125 -59.265625 50.777344 -59.523438 49.605469 -59.265625 C 47.90625 -59.003906 46.210938 -58.609375 44.511719 -58.089844 L 39.03125 -55.476562 C 37.855469 -55.085938 36.679688 -54.304688 35.375 -53.390625 L 32.894531 -51.824219 C 32.375 -51.429688 31.199219 -50.257812 30.546875 -49.996094 C 30.152344 -49.734375 29.371094 -49.472656 28.71875 -49.082031 C 27.804688 -48.558594 26.761719 -48.039062 26.367188 -47.386719 C 25.714844 -46.210938 25.195312 -45.820312 24.28125 -45.949219 C 24.28125 -43.859375 22.320312 -44.773438 23.234375 -43.597656 C 22.84375 -43.597656 22.191406 -43.597656 21.800781 -43.46875 C 21.40625 -43.207031 20.886719 -43.078125 20.625 -42.683594 C 20.625 -42.683594 20.753906 -42.683594 20.753906 -42.554688 C 19.839844 -41.25 18.667969 -39.945312 17.492188 -39.550781 C 17.230469 -39.160156 17.101562 -38.246094 16.578125 -38.117188 C 15.796875 -37.855469 15.796875 -37.203125 15.796875 -36.679688 C 15.535156 -36.679688 15.273438 -36.289062 15.273438 -36.289062 L 12.53125 -32.242188 L 12.140625 -31.980469 C 12.53125 -31.71875 12.269531 -31.328125 11.878906 -31.328125 C 11.355469 -31.328125 11.226562 -31.066406 10.964844 -30.9375 L 9.660156 -28.585938 C 9.527344 -28.585938 9.398438 -28.457031 9.398438 -28.328125 C 8.875 -27.804688 8.617188 -27.019531 8.355469 -26.105469 L 7.308594 -24.800781 C 7.703125 -23.496094 7.050781 -23.367188 7.050781 -23.496094 L 6.917969 -22.320312 C 6.65625 -21.800781 6.527344 -20.886719 6.527344 -20.101562 C 6.789062 -16.054688 9.269531 -12.660156 11.878906 -10.703125 C 14.097656 -8.875 17.492188 -7.308594 19.320312 -6.527344 C 22.191406 -5.351562 28.328125 -4.4375 25.976562 -4.4375 L 25.976562 -4.175781 C 25.585938 -4.308594 25.324219 -3.523438 25.195312 -3.132812 C 24.410156 -3.003906 22.582031 -1.566406 22.191406 -1.175781 C 21.277344 -0.390625 20.101562 0.390625 18.796875 1.957031 C 18.796875 2.21875 18.144531 2.609375 18.144531 2.609375 C 17.621094 3.132812 17.101562 3.917969 16.449219 4.828125 L 16.578125 4.828125 C 16.96875 4.828125 17.101562 4.570312 17.492188 4.308594 C 16.449219 5.742188 15.535156 7.050781 15.273438 8.617188 L 15.273438 10.3125 L 15.664062 11.75 L 16.054688 12.53125 C 16.449219 13.316406 16.839844 13.96875 17.101562 14.226562 C 18.015625 15.535156 19.058594 16.578125 20.625 17.621094 C 21.015625 18.273438 21.539062 18.667969 22.191406 19.1875 C 23.496094 19.972656 24.800781 20.496094 26.238281 21.148438 C 26.761719 21.277344 27.671875 21.148438 28.328125 21.148438 C 28.71875 21.148438 29.371094 21.277344 29.761719 21.667969 C 30.023438 21.667969 30.285156 21.929688 30.285156 21.929688 C 31.066406 22.191406 31.328125 21.800781 32.113281 21.277344 C 32.894531 21.015625 34.070312 21.015625 35.375 20.886719 C 36.417969 20.886719 39.292969 19.582031 40.464844 19.320312 C 41.902344 18.796875 46.863281 16.839844 48.296875 15.140625 C 48.820312 15.011719 49.605469 15.011719 50.386719 14.75 L 50.386719 14.488281 C 51.5625 13.574219 59.785156 7.570312 60.832031 5.742188 L 62.789062 2.480469 L 60.960938 1.304688 L 60.308594 1.957031 C 58.21875 3.523438 52.085938 8.222656 49.210938 9.398438 C 47.777344 10.050781 46.078125 10.964844 44.90625 11.488281 C 42.425781 12.53125 40.464844 13.574219 38.246094 14.488281 C 34.460938 16.054688 30.9375 16.578125 27.414062 16.1875 C 26.105469 16.1875 24.933594 16.1875 24.019531 15.796875 C 23.367188 15.664062 22.582031 15.140625 22.453125 14.882812 C 21.539062 13.574219 21.40625 10.703125 21.929688 9.007812 C 22.320312 8.617188 22.320312 7.832031 22.582031 7.441406 C 23.628906 7.179688 24.28125 6.265625 24.28125 5.222656 C 24.28125 4.960938 24.410156 4.699219 24.539062 4.828125 C 25.195312 4.828125 25.0625 4.308594 25.585938 3.917969 L 25.976562 3.003906 C 27.542969 1.695312 28.71875 0 30.9375 -0.914062 C 32.894531 -1.695312 34.460938 -3.132812 36.417969 -3.394531 C 38.378906 -4.308594 40.464844 -4.4375 42.554688 -4.828125 L 42.816406 -4.828125 C 42.683594 -4.960938 42.554688 -5.089844 42.164062 -5.089844 C 43.078125 -5.351562 43.859375 -5.613281 44.511719 -5.613281 C 45.296875 -5.742188 46.078125 -5.742188 46.863281 -5.742188 L 49.605469 -5.742188 C 50.910156 -5.742188 52.34375 -5.613281 53.519531 -5.613281 C 53.78125 -6.136719 53.910156 -6.527344 53.910156 -6.789062 C 53.910156 -8.875 52.738281 -8.617188 51.953125 -9.269531 C 51.5625 -9.398438 51.824219 -9.136719 51.5625 -9.398438 C 51.5625 -9.527344 51.824219 -9.527344 51.824219 -9.660156 C 48.429688 -10.183594 44.90625 -9.527344 41.117188 -9.269531 L 40.207031 -9.136719 C 40.207031 -9.269531 40.207031 -9.269531 40.074219 -9.398438 L 36.289062 -8.875 C 35.246094 -8.746094 33.941406 -8.746094 32.765625 -8.617188 C 30.414062 -8.222656 27.671875 -8.617188 24.933594 -8.875 C 21.015625 -9.398438 18.015625 -10.183594 14.882812 -13.054688 C 12.792969 -15.273438 10.441406 -19.058594 12.269531 -22.191406 L 12.269531 -22.453125 C 13.183594 -24.28125 13.96875 -25.976562 14.75 -27.933594 C 14.882812 -28.328125 14.882812 -28.585938 15.273438 -28.980469 C 15.664062 -29.371094 16.054688 -30.023438 16.449219 -30.414062 L 18.667969 -33.417969 C 19.582031 -34.070312 20.753906 -34.851562 20.886719 -36.417969 L 21.015625 -36.550781 C 21.800781 -37.074219 22.84375 -37.464844 23.105469 -38.117188 C 23.886719 -39.550781 24.933594 -40.335938 26.238281 -40.988281 C 26.890625 -41.378906 27.542969 -42.292969 28.195312 -42.816406 L 29.761719 -43.992188 L 31.199219 -45.035156 C 32.375 -45.949219 33.285156 -46.730469 34.332031 -47.90625 C 34.332031 -47.90625 34.070312 -48.039062 34.070312 -48.429688 C 35.765625 -47.90625 36.289062 -48.429688 35.898438 -49.472656 L 35.375 -49.472656 L 35.375 -49.734375 L 36.550781 -49.734375 C 37.203125 -49.734375 37.59375 -49.605469 38.246094 -49.734375 C 38.769531 -49.734375 39.550781 -49.996094 39.945312 -50.257812 C 40.597656 -50.519531 41.117188 -51.039062 41.902344 -51.300781 C 41.511719 -51.824219 41.378906 -51.824219 41.378906 -51.824219 C 42.816406 -52.085938 43.859375 -52.867188 45.296875 -53.257812 C 45.296875 -53.390625 45.425781 -53.78125 45.6875 -53.78125 C 46.730469 -54.171875 48.039062 -54.171875 49.082031 -54.5625 C 50.648438 -55.21875 52.34375 -54.042969 53.652344 -55.347656 L 53.910156 -55.871094 C 54.304688 -56.652344 56.128906 -56.390625 57.175781 -55.738281 C 62.398438 -53.257812 63.703125 -47.515625 61.351562 -42.683594 C 60.570312 -40.726562 60.046875 -39.8125 59.265625 -38.117188 L 58.351562 -36.941406 C 57.304688 -35.113281 55.738281 -33.679688 54.824219 -32.113281 C 54.042969 -31.066406 52.867188 -30.285156 52.085938 -29.371094 C 51.824219 -28.980469 51.5625 -28.457031 51.824219 -28.328125 C 51.953125 -27.152344 52.085938 -27.019531 53.519531 -25.714844 C 53.910156 -25.0625 54.957031 -24.800781 55.476562 -25.195312 C 55.871094 -25.714844 56.652344 -26.105469 57.175781 -26.890625 C 57.828125 -27.414062 58.21875 -27.933594 58.742188 -28.457031 C 59.394531 -29.632812 60.308594 -30.808594 60.960938 -31.71875 C 61.875 -33.027344 62.789062 -34.332031 63.441406 -35.507812 C 64.746094 -37.332031 65.921875 -40.597656 66.574219 -42.816406 L 66.964844 -45.164062 C 67.097656 -47.253906 66.703125 -49.082031 66.183594 -51.039062 Z M 66.183594 -51.039062 "/></g></g></g><g fill="#dc2ade" fill-opacity="1"><g transform="translate(288.012215, 338.929592)"><g><path d="M 5.351562 10.574219 C 6.65625 9.789062 8.222656 9.527344 9.789062 8.617188 C 10.574219 7.832031 11.617188 6.917969 12.269531 5.742188 C 13.574219 4.960938 14.488281 3.65625 15.402344 2.609375 C 16.054688 1.828125 16.96875 1.042969 17.621094 0.128906 C 18.40625 -1.175781 19.320312 -2.21875 19.582031 -3.917969 C 19.582031 -3.917969 19.710938 -4.046875 19.972656 -4.046875 C 21.015625 -4.570312 21.277344 -5.613281 21.667969 -6.527344 C 22.0625 -7.179688 22.191406 -7.832031 23.757812 -11.617188 L 25.453125 -16.054688 C 25.847656 -17.363281 25.714844 -18.796875 25.0625 -19.710938 C 24.800781 -19.839844 24.800781 -20.101562 24.671875 -20.363281 C 24.28125 -20.625 24.148438 -21.277344 23.886719 -21.277344 C 23.496094 -21.277344 23.105469 -20.625 22.84375 -20.101562 C 22.191406 -18.667969 21.539062 -17.363281 21.148438 -16.316406 C 19.972656 -14.359375 18.796875 -12.53125 17.753906 -10.574219 C 16.839844 -8.484375 15.535156 -6.527344 13.835938 -4.699219 C 13.183594 -3.785156 12.402344 -2.609375 11.617188 -1.957031 C 10.835938 -0.785156 9.789062 0.390625 8.617188 1.304688 C 7.570312 2.089844 6.527344 3.261719 5.222656 3.261719 C 5.613281 1.4375 5.742188 -0.261719 6.003906 -2.089844 C 6.917969 -4.828125 7.441406 -7.308594 8.09375 -10.050781 C 8.484375 -12.660156 9.269531 -15.273438 9.007812 -17.882812 C 8.746094 -18.144531 8.484375 -18.40625 8.484375 -18.667969 C 8.222656 -18.929688 8.355469 -19.320312 8.222656 -19.582031 C 7.308594 -19.839844 6.136719 -20.753906 5.484375 -20.625 L 4.308594 -15.796875 C 3.917969 -14.621094 3.785156 -13.707031 3.65625 -12.660156 C 3.261719 -11.488281 2.871094 -9.921875 2.871094 -8.617188 C 2.480469 -7.570312 1.828125 -6.265625 1.828125 -4.828125 C 1.695312 -3.785156 1.175781 -3.003906 0.914062 -1.695312 C 1.042969 0.261719 0.785156 2.21875 0.785156 4.308594 C 0.785156 4.570312 0.914062 5.222656 1.042969 6.003906 C 1.566406 6.917969 1.4375 8.09375 2.351562 8.09375 C 2.480469 8.09375 3.261719 9.527344 3.261719 9.660156 Z M 5.351562 10.574219 "/></g></g></g><g fill="#dc2ade" fill-opacity="1"><g transform="translate(317.771296, 338.929592)"><g><path d="M 34.332031 -12.792969 C 34.722656 -13.054688 34.984375 -13.445312 35.375 -13.707031 C 35.375 -13.835938 35.246094 -13.835938 35.246094 -13.835938 L 34.984375 -14.75 L 30.546875 -11.488281 C 30.285156 -11.226562 29.5 -10.835938 28.980469 -10.574219 C 27.671875 -9.789062 25.195312 -8.355469 24.019531 -7.570312 L 23.628906 -7.308594 L 19.320312 -4.828125 C 18.667969 -4.4375 18.015625 -4.4375 17.363281 -4.175781 C 16.316406 -3.785156 15.273438 -3.261719 14.359375 -2.871094 C 13.183594 -2.480469 12.007812 -1.957031 10.835938 -1.828125 C 9.136719 -1.566406 7.441406 -1.695312 5.742188 -1.566406 C 4.699219 -1.957031 4.4375 -2.21875 3.917969 -3.785156 C 4.828125 -4.308594 5.222656 -4.4375 6.265625 -4.960938 C 6.527344 -5.222656 6.789062 -5.613281 7.179688 -5.742188 C 7.960938 -6.265625 9.007812 -6.65625 9.921875 -7.179688 C 10.050781 -7.308594 10.050781 -7.703125 10.183594 -7.832031 L 12.007812 -9.136719 C 12.53125 -9.398438 13.445312 -9.527344 13.574219 -10.441406 C 13.707031 -10.835938 14.488281 -10.964844 14.882812 -11.355469 C 16.054688 -12.53125 17.230469 -13.707031 18.40625 -15.011719 C 18.796875 -15.402344 19.1875 -16.054688 19.449219 -16.707031 C 19.839844 -17.753906 19.1875 -19.972656 18.144531 -20.625 C 17.230469 -21.40625 16.1875 -22.191406 15.011719 -22.714844 C 14.097656 -23.234375 12.921875 -24.148438 11.617188 -23.628906 C 11.09375 -23.496094 10.703125 -23.367188 10.3125 -23.367188 C 8.617188 -23.234375 7.179688 -22.453125 6.003906 -21.277344 C 4.828125 -19.972656 3.65625 -18.667969 2.480469 -17.230469 C 1.828125 -16.449219 1.304688 -15.664062 0.785156 -14.882812 C -0.523438 -12.402344 -1.175781 -9.921875 -1.304688 -7.308594 C -1.304688 -6.394531 -1.4375 -5.484375 -0.785156 -3.917969 C -0.523438 -2.609375 -0.523438 -2.609375 -0.261719 -2.351562 C 0.523438 -1.175781 1.042969 -0.390625 1.957031 0.261719 C 2.089844 0.390625 2.480469 0.523438 2.609375 0.785156 C 3.917969 1.828125 4.4375 1.957031 5.613281 2.351562 C 6.789062 2.742188 8.222656 3.003906 9.527344 3.132812 C 10.574219 3.261719 11.488281 3.003906 12.53125 2.742188 C 13.183594 2.609375 13.96875 2.480469 14.488281 2.21875 C 14.882812 1.957031 15.140625 1.828125 15.664062 1.828125 C 16.578125 1.695312 17.492188 1.695312 18.273438 1.304688 C 19.582031 0.785156 20.625 -0.128906 21.800781 -0.785156 C 22.714844 -1.4375 23.496094 -1.957031 24.539062 -2.480469 L 27.019531 -4.4375 C 27.542969 -4.828125 28.195312 -5.351562 28.71875 -5.875 C 28.847656 -6.003906 29.371094 -6.527344 29.5 -6.917969 L 29.5 -7.050781 C 29.632812 -7.960938 30.152344 -8.222656 30.675781 -8.617188 C 30.285156 -9.007812 30.546875 -9.269531 31.066406 -9.527344 L 31.460938 -10.050781 C 32.113281 -10.441406 32.113281 -10.835938 32.375 -11.09375 Z M 4.699219 -11.75 C 5.484375 -13.316406 6.394531 -14.882812 7.441406 -16.316406 C 8.355469 -17.492188 9.527344 -18.144531 10.703125 -19.058594 C 11.75 -19.839844 12.921875 -19.839844 14.097656 -20.363281 C 14.621094 -20.625 15.273438 -19.449219 14.882812 -18.796875 C 14.359375 -17.882812 13.835938 -17.101562 13.054688 -16.449219 L 9.527344 -13.316406 L 6.003906 -10.441406 C 5.484375 -10.050781 4.828125 -9.660156 3.785156 -9.007812 C 4.046875 -10.050781 4.308594 -10.964844 4.699219 -11.75 Z M 4.699219 -11.75 "/></g></g></g><g fill="#dc2ade" fill-opacity="1"><g transform="translate(350.6629, 338.929592)"><g><path d="M 3.917969 6.003906 C 4.960938 6.265625 5.484375 6.136719 6.003906 5.089844 C 6.136719 4.960938 6.136719 4.828125 6.394531 4.699219 L 6.789062 3.785156 C 7.441406 3.785156 7.960938 3.394531 8.484375 2.742188 C 9.136719 1.304688 11.617188 -3.523438 11.75 -3.523438 L 12.402344 -4.4375 C 12.140625 -4.4375 12.921875 -5.089844 13.054688 -5.484375 C 13.445312 -6.136719 14.359375 -6.265625 14.226562 -7.308594 C 15.140625 -7.703125 15.796875 -8.355469 16.054688 -9.398438 C 16.96875 -9.527344 17.492188 -9.921875 17.882812 -11.355469 C 18.015625 -10.964844 18.273438 -10.835938 18.535156 -10.574219 C 18.535156 -9.789062 18.40625 -8.875 18.40625 -8.222656 C 18.144531 -5.484375 18.667969 -3.003906 19.320312 -0.785156 C 19.839844 0.914062 20.886719 2.089844 22.0625 3.003906 C 22.714844 3.785156 23.105469 3.785156 24.019531 4.175781 L 24.148438 4.175781 C 26.105469 3.785156 28.328125 3.785156 30.152344 2.480469 C 31.328125 1.695312 32.503906 0.785156 33.285156 -0.128906 C 34.199219 -1.042969 35.246094 -1.828125 35.765625 -2.871094 C 35.765625 -3.003906 36.160156 -3.003906 36.289062 -3.132812 C 36.160156 -3.261719 36.160156 -3.523438 36.160156 -3.523438 C 36.8125 -3.917969 36.8125 -4.308594 36.941406 -4.570312 L 39.160156 -7.179688 C 39.683594 -7.570312 40.207031 -8.222656 40.464844 -8.746094 C 40.726562 -9.269531 40.726562 -9.789062 40.988281 -10.441406 L 42.164062 -12.269531 C 42.816406 -13.054688 42.292969 -13.574219 41.511719 -13.574219 L 29.371094 -1.957031 C 28.71875 -1.4375 27.933594 -1.042969 27.152344 -0.785156 C 24.933594 0.390625 24.539062 0.523438 24.410156 0.652344 L 24.019531 0.652344 C 23.886719 0.523438 23.496094 0.128906 23.496094 -0.128906 L 23.105469 -1.4375 C 23.105469 -2.351562 23.105469 -3.394531 22.972656 -4.308594 C 23.105469 -4.699219 22.972656 -5.089844 22.972656 -5.351562 C 23.105469 -6.394531 23.234375 -7.441406 23.234375 -8.484375 C 23.105469 -9.660156 22.84375 -10.835938 22.453125 -12.007812 C 22.453125 -12.402344 22.582031 -12.792969 22.453125 -12.792969 C 21.929688 -13.054688 22.0625 -13.707031 21.929688 -14.359375 C 19.839844 -15.402344 19.582031 -15.664062 19.1875 -15.664062 C 18.796875 -15.796875 18.535156 -15.925781 17.492188 -15.925781 C 16.1875 -15.796875 16.054688 -15.796875 15.402344 -15.402344 C 14.359375 -14.621094 13.445312 -13.707031 12.660156 -12.792969 C 11.09375 -11.226562 9.660156 -9.398438 8.355469 -7.441406 C 8.355469 -7.308594 8.355469 -7.441406 8.222656 -7.308594 C 8.355469 -7.570312 8.355469 -7.703125 8.355469 -7.832031 C 8.617188 -8.746094 9.007812 -9.527344 9.269531 -10.441406 C 9.527344 -11.355469 9.527344 -12.007812 9.660156 -12.921875 C 9.789062 -13.96875 9.921875 -14.882812 10.183594 -15.925781 C 10.183594 -16.054688 10.183594 -16.054688 10.050781 -16.1875 C 9.136719 -17.492188 7.960938 -18.667969 6.265625 -18.796875 C 5.484375 -18.929688 5.222656 -18.667969 5.089844 -17.753906 C 4.960938 -16.96875 4.828125 -16.1875 5.222656 -15.796875 C 5.351562 -15.796875 5.351562 -15.535156 5.351562 -15.402344 C 5.089844 -13.835938 4.960938 -12.402344 4.570312 -10.835938 C 4.046875 -8.484375 3.261719 -6.136719 2.609375 -3.917969 C 2.089844 -1.566406 1.828125 0.523438 1.4375 2.742188 C 1.175781 3.785156 3.132812 5.742188 3.917969 6.003906 Z M 3.917969 6.003906 "/></g></g></g><g fill="#dc2ade" fill-opacity="1"><g transform="translate(384.468162, 338.929592)"><g><path d="M 27.414062 -43.078125 C 28.195312 -43.207031 29.894531 -43.46875 30.414062 -43.078125 C 31.328125 -43.46875 32.632812 -43.46875 33.417969 -43.46875 L 33.679688 -43.597656 C 34.199219 -44.382812 36.160156 -44.511719 35.765625 -45.820312 C 35.375 -46.078125 34.722656 -45.558594 34.460938 -45.425781 C 31.71875 -44.90625 30.9375 -45.035156 24.671875 -45.296875 C 24.148438 -45.164062 23.105469 -45.558594 21.277344 -45.6875 C 21.539062 -47.125 21.929688 -47.777344 22.84375 -50.386719 C 23.496094 -52.085938 24.539062 -53.78125 24.933594 -55.347656 C 26.238281 -57.566406 27.28125 -59.917969 28.328125 -62.398438 C 28.71875 -63.308594 29.109375 -63.964844 28.066406 -64.617188 C 27.804688 -65.007812 27.28125 -65.269531 27.152344 -65.660156 C 27.019531 -66.703125 25.847656 -66.964844 24.800781 -67.617188 C 24.539062 -67.75 24.28125 -67.75 24.148438 -68.007812 C 23.628906 -68.140625 23.234375 -68.007812 22.972656 -67.226562 C 22.714844 -66.3125 22.191406 -65.007812 21.929688 -64.09375 C 21.539062 -63.441406 21.148438 -63.179688 21.148438 -62.65625 C 20.363281 -61.089844 20.101562 -59.65625 19.449219 -58.21875 C 19.058594 -56.652344 18.273438 -55.21875 17.882812 -53.910156 C 17.363281 -52.605469 16.839844 -51.429688 16.449219 -50.125 C 15.664062 -48.820312 15.535156 -47.515625 14.75 -46.210938 C 13.96875 -46.210938 13.054688 -46.210938 11.878906 -46.078125 L 9.398438 -46.339844 C 8.484375 -46.730469 7.570312 -46.472656 6.789062 -46.078125 C 6.527344 -45.949219 6.136719 -46.078125 6.003906 -46.078125 C 6.003906 -46.078125 5.484375 -46.210938 4.828125 -45.425781 C 4.175781 -45.164062 3.917969 -44.382812 3.917969 -43.992188 C 4.046875 -42.816406 5.484375 -42.554688 7.050781 -42.164062 C 9.527344 -41.902344 11.355469 -41.773438 13.054688 -41.773438 L 11.75 -37.726562 L 7.570312 -24.671875 C 7.703125 -24.539062 7.703125 -24.28125 7.832031 -24.148438 L 7.570312 -24.148438 C 7.308594 -23.496094 6.917969 -23.105469 6.917969 -22.582031 C 6.394531 -20.886719 6.394531 -19.449219 5.875 -18.015625 L 4.960938 -14.359375 C 4.699219 -12.792969 4.175781 -11.226562 4.308594 -9.660156 C 4.046875 -6.917969 3.65625 -4.308594 4.175781 -1.695312 C 4.699219 0.914062 5.222656 3.523438 6.65625 5.613281 C 6.917969 5.875 7.179688 6.136719 7.441406 6.527344 C 8.484375 7.703125 9.007812 8.484375 10.183594 8.875 C 12.007812 10.050781 12.402344 9.921875 14.359375 9.789062 L 14.097656 9.789062 C 14.882812 9.789062 15.140625 9.660156 15.402344 9.269531 C 16.054688 8.222656 17.230469 7.441406 16.839844 6.136719 C 16.839844 6.136719 15.273438 6.917969 14.226562 6.789062 C 13.054688 6.917969 12.921875 6.789062 11.75 6.136719 L 10.835938 5.089844 C 10.574219 4.828125 10.050781 4.308594 10.050781 3.394531 C 9.789062 2.480469 9.527344 1.566406 9.660156 0.652344 C 9.660156 0.128906 9.660156 -0.261719 9.136719 -0.390625 C 9.660156 -0.652344 9.269531 -0.785156 9.007812 -1.042969 C 9.660156 -1.175781 9.527344 -3.523438 9.007812 -4.175781 C 9.269531 -4.570312 9.527344 -5.089844 9.660156 -5.484375 C 9.398438 -5.613281 9.269531 -5.742188 9.398438 -5.742188 C 9.527344 -5.875 9.660156 -6.136719 9.660156 -6.394531 C 9.660156 -7.441406 9.789062 -8.355469 10.183594 -9.527344 C 10.050781 -9.921875 10.183594 -10.574219 10.3125 -11.09375 C 10.3125 -11.488281 10.703125 -12.007812 10.703125 -12.269531 C 10.703125 -12.921875 11.09375 -13.707031 10.703125 -14.359375 C 10.964844 -14.75 11.355469 -15.140625 11.488281 -15.535156 C 11.617188 -16.96875 12.140625 -18.40625 12.53125 -19.839844 C 12.53125 -20.625 12.921875 -21.40625 13.316406 -22.191406 C 13.445312 -23.367188 14.097656 -24.671875 14.359375 -25.976562 C 14.488281 -26.5 14.75 -27.019531 15.011719 -27.671875 C 15.273438 -28.457031 15.140625 -29.238281 15.535156 -30.152344 C 15.535156 -30.414062 15.402344 -30.675781 15.535156 -30.675781 C 16.316406 -30.9375 16.1875 -31.460938 16.054688 -31.71875 C 15.925781 -31.980469 16.1875 -32.242188 16.1875 -32.503906 C 16.707031 -33.027344 17.101562 -33.941406 16.96875 -34.460938 C 17.230469 -34.851562 17.492188 -35.113281 17.363281 -35.375 C 17.101562 -35.898438 17.621094 -36.941406 18.144531 -37.203125 L 19.582031 -41.640625 L 21.015625 -41.640625 C 22.191406 -41.773438 24.148438 -41.640625 25.585938 -41.640625 C 27.28125 -41.773438 28.457031 -41.773438 29.109375 -41.773438 C 30.285156 -41.773438 31.460938 -41.902344 31.851562 -42.164062 L 33.808594 -42.425781 C 34.070312 -42.554688 34.199219 -42.683594 33.808594 -42.945312 C 31.199219 -42.683594 30.152344 -42.683594 25.0625 -42.554688 L 25.195312 -42.816406 Z M 27.414062 -43.078125 "/></g></g></g><g fill="#dc2ade" fill-opacity="1"><g transform="translate(411.877832, 338.929592)"><g><path d="M 22.84375 -25.714844 C 22.453125 -25.976562 21.800781 -26.628906 19.1875 -26.628906 C 17.621094 -26.628906 16.96875 -26.238281 15.796875 -25.976562 L 14.621094 -25.324219 C 13.707031 -24.933594 13.707031 -24.933594 13.054688 -24.410156 C 12.660156 -23.628906 12.007812 -22.84375 11.488281 -22.191406 C 10.835938 -21.40625 11.09375 -20.234375 10.964844 -19.320312 C 10.441406 -18.796875 10.574219 -17.230469 10.574219 -16.707031 L 11.09375 -15.664062 C 10.964844 -15.011719 11.226562 -14.488281 11.488281 -13.96875 C 12.140625 -12.792969 12.269531 -12.007812 12.792969 -10.441406 L 12.921875 -9.921875 L 13.183594 -9.269531 L 13.707031 -8.484375 L 14.488281 -6.917969 L 14.75 -6.527344 L 16.578125 -1.828125 C 17.363281 0.128906 17.621094 1.042969 17.492188 2.742188 C 17.621094 3.785156 17.621094 4.960938 17.363281 6.136719 C 17.230469 6.917969 16.96875 7.832031 16.316406 8.746094 C 15.273438 10.183594 14.488281 10.574219 12.007812 10.964844 C 11.226562 11.09375 10.183594 10.835938 9.527344 10.441406 C 8.484375 9.398438 7.703125 8.875 7.703125 7.703125 C 7.832031 7.441406 7.441406 7.050781 7.179688 6.789062 C 6.65625 5.875 6.527344 4.699219 6.789062 2.480469 L 7.570312 0.652344 L 9.136719 -1.042969 L 9.007812 -2.21875 L 8.746094 -2.480469 L 8.746094 -2.609375 C 7.570312 -2.089844 7.441406 -2.21875 6.394531 -1.4375 C 5.222656 -0.652344 3.917969 0.523438 3.003906 1.695312 L 2.871094 4.046875 C 2.871094 4.046875 2.609375 4.046875 2.609375 4.308594 L 2.609375 4.4375 C 2.609375 5.742188 3.003906 7.179688 3.65625 8.09375 C 4.175781 8.746094 4.699219 9.789062 5.613281 10.574219 C 6.136719 11.355469 7.179688 12.402344 8.355469 13.183594 C 8.875 13.96875 9.921875 13.96875 10.183594 14.226562 C 10.835938 14.488281 11.878906 14.488281 12.921875 14.75 C 14.097656 14.882812 15.011719 15.011719 15.796875 14.75 L 17.101562 14.359375 C 16.96875 14.097656 16.839844 14.097656 16.839844 13.96875 C 17.230469 13.96875 17.621094 13.96875 18.015625 13.835938 C 18.796875 13.574219 20.101562 12.402344 21.015625 11.09375 C 21.929688 10.3125 22.191406 9.007812 22.191406 8.875 C 22.320312 8.09375 23.234375 7.050781 22.714844 6.527344 C 22.972656 5.875 22.84375 5.613281 22.714844 5.222656 C 22.972656 3.261719 23.105469 2.351562 22.714844 0.390625 C 22.714844 0.128906 22.320312 0 22.320312 -0.261719 C 22.582031 -0.785156 22.320312 -0.914062 22.0625 -1.175781 C 21.929688 -1.566406 21.667969 -1.957031 21.667969 -2.609375 L 21.277344 -3.917969 C 20.886719 -5.089844 20.625 -5.222656 20.363281 -6.394531 C 20.363281 -6.789062 19.582031 -7.308594 19.710938 -7.703125 C 19.582031 -7.960938 19.1875 -8.09375 19.320312 -8.355469 L 18.667969 -8.875 L 18.273438 -10.050781 L 18.015625 -10.703125 L 17.492188 -11.617188 L 17.492188 -12.402344 C 17.230469 -12.53125 17.230469 -12.660156 17.230469 -13.054688 C 17.230469 -13.445312 16.839844 -13.835938 16.839844 -14.359375 C 16.449219 -15.402344 16.054688 -16.1875 16.1875 -17.492188 C 15.796875 -18.535156 15.796875 -19.582031 16.1875 -20.363281 C 16.316406 -21.015625 16.839844 -21.40625 17.230469 -21.667969 C 17.492188 -22.0625 17.882812 -22.320312 18.144531 -22.453125 C 18.667969 -22.84375 18.667969 -22.582031 19.839844 -22.972656 L 21.277344 -22.972656 C 22.84375 -22.582031 24.148438 -22.191406 24.539062 -21.539062 L 24.933594 -21.539062 L 24.933594 -21.667969 L 25.585938 -21.667969 L 25.714844 -21.40625 L 25.976562 -21.277344 C 25.976562 -21.800781 26.105469 -23.628906 22.84375 -25.714844 Z M 22.84375 -25.714844 "/></g></g></g><g clip-path="url(#b833716502)"><path fill="#dc2ade" d="M 262.710938 202.171875 C 255.792969 202.171875 250.125 207.855469 250.125 214.796875 L 250.125 258.984375 L 253.273438 258.984375 C 263.734375 258.984375 272.152344 267.429688 272.152344 277.921875 C 272.152344 288.410156 263.734375 296.859375 253.273438 296.859375 L 250.125 296.859375 L 250.125 341.046875 C 250.125 347.984375 255.792969 353.671875 262.710938 353.671875 L 457.808594 353.671875 C 464.730469 353.671875 470.394531 347.984375 470.394531 341.046875 L 470.394531 296.859375 L 467.25 296.859375 C 456.789062 296.859375 448.367188 288.410156 448.367188 277.921875 C 448.367188 267.429688 456.789062 258.984375 467.25 258.984375 L 470.394531 258.984375 L 470.394531 214.796875 C 470.394531 207.855469 464.730469 202.171875 457.808594 202.171875 Z M 262.710938 208.484375 L 309.914062 208.484375 C 309.914062 210.222656 311.328125 211.640625 313.058594 211.640625 C 314.792969 211.640625 316.207031 210.222656 316.207031 208.484375 L 457.808594 208.484375 C 461.324219 208.484375 464.101562 211.269531 464.101562 214.796875 L 464.101562 253.3125 C 451.785156 254.9375 442.074219 265.132812 442.074219 277.921875 C 442.074219 290.707031 451.785156 300.902344 464.101562 302.527344 L 464.101562 341.046875 C 464.101562 344.570312 461.324219 347.359375 457.808594 347.359375 L 316.207031 347.359375 C 316.207031 345.617188 314.792969 344.203125 313.058594 344.203125 C 311.328125 344.203125 309.914062 345.617188 309.914062 347.359375 L 262.710938 347.359375 C 259.199219 347.359375 256.417969 344.570312 256.417969 341.046875 L 256.417969 302.527344 C 268.734375 300.902344 278.445312 290.707031 278.445312 277.921875 C 278.445312 265.132812 268.734375 254.9375 256.417969 253.3125 L 256.417969 214.796875 C 256.417969 211.269531 259.199219 208.484375 262.710938 208.484375 Z M 313.058594 217.953125 C 311.328125 217.953125 309.914062 219.367188 309.914062 221.109375 C 309.914062 222.847656 311.328125 224.265625 313.058594 224.265625 C 314.792969 224.265625 316.207031 222.847656 316.207031 221.109375 C 316.207031 219.367188 314.792969 217.953125 313.058594 217.953125 Z M 313.058594 230.578125 C 311.328125 230.578125 309.914062 231.992188 309.914062 233.734375 C 309.914062 235.472656 311.328125 236.890625 313.058594 236.890625 C 314.792969 236.890625 316.207031 235.472656 316.207031 233.734375 C 316.207031 231.992188 314.792969 230.578125 313.058594 230.578125 Z M 313.058594 243.203125 C 311.328125 243.203125 309.914062 244.617188 309.914062 246.359375 C 309.914062 248.097656 311.328125 249.515625 313.058594 249.515625 C 314.792969 249.515625 316.207031 248.097656 316.207031 246.359375 C 316.207031 244.617188 314.792969 243.203125 313.058594 243.203125 Z M 313.058594 255.828125 C 311.328125 255.828125 309.914062 257.242188 309.914062 258.984375 C 309.914062 260.722656 311.328125 262.140625 313.058594 262.140625 C 314.792969 262.140625 316.207031 260.722656 316.207031 258.984375 C 316.207031 257.242188 314.792969 255.828125 313.058594 255.828125 Z M 313.058594 268.453125 C 311.328125 268.453125 309.914062 269.867188 309.914062 271.609375 C 309.914062 273.347656 311.328125 274.765625 313.058594 274.765625 C 314.792969 274.765625 316.207031 273.347656 316.207031 271.609375 C 316.207031 269.867188 314.792969 268.453125 313.058594 268.453125 Z M 313.058594 281.078125 C 311.328125 281.078125 309.914062 282.492188 309.914062 284.234375 C 309.914062 285.972656 311.328125 287.390625 313.058594 287.390625 C 314.792969 287.390625 316.207031 285.972656 316.207031 284.234375 C 316.207031 282.492188 314.792969 281.078125 313.058594 281.078125 Z M 313.058594 293.703125 C 311.328125 293.703125 309.914062 295.117188 309.914062 296.859375 C 309.914062 298.597656 311.328125 300.015625 313.058594 300.015625 C 314.792969 300.015625 316.207031 298.597656 316.207031 296.859375 C 316.207031 295.117188 314.792969 293.703125 313.058594 293.703125 Z M 313.058594 306.328125 C 311.328125 306.328125 309.914062 307.742188 309.914062 309.484375 C 309.914062 311.222656 311.328125 312.640625 313.058594 312.640625 C 314.792969 312.640625 316.207031 311.222656 316.207031 309.484375 C 316.207031 307.742188 314.792969 306.328125 313.058594 306.328125 Z M 313.058594 318.953125 C 311.328125 318.953125 309.914062 320.367188 309.914062 322.109375 C 309.914062 323.847656 311.328125 325.265625 313.058594 325.265625 C 314.792969 325.265625 316.207031 323.847656 316.207031 322.109375 C 316.207031 320.367188 314.792969 318.953125 313.058594 318.953125 Z M 313.058594 331.578125 C 311.328125 331.578125 309.914062 332.992188 309.914062 334.734375 C 309.914062 336.472656 311.328125 337.890625 313.058594 337.890625 C 314.792969 337.890625 316.207031 336.472656 316.207031 334.734375 C 316.207031 332.992188 314.792969 331.578125 313.058594 331.578125 Z M 313.058594 331.578125 " fill-opacity="1" fill-rule="nonzero"/></g></svg>