<svg xmlns="http://www.w3.org/2000/svg" xmlns:xlink="http://www.w3.org/1999/xlink" width="800" zoomAndPan="magnify" viewBox="0 0 600 374.999991" height="500" preserveAspectRatio="xMidYMid meet" version="1.0"><defs><g/><clipPath id="cfa5265faf"><path d="M 27.007812 70.3125 L 205.359375 70.3125 L 205.359375 310.066406 L 27.007812 310.066406 Z M 27.007812 70.3125 " clip-rule="nonzero"/></clipPath><clipPath id="6720bd545a"><path d="M 506.609375 70.3125 L 569.472656 70.3125 L 569.472656 310.066406 L 506.609375 310.066406 Z M 506.609375 70.3125 " clip-rule="nonzero"/></clipPath></defs><g clip-path="url(#cfa5265faf)"><path fill="#dc2ade" d="M 47.125 70.3125 C 36.160156 70.3125 27.179688 79.304688 27.179688 90.289062 L 27.179688 160.21875 L 32.167969 160.21875 C 48.742188 160.21875 62.085938 173.585938 62.085938 190.1875 C 62.085938 206.792969 48.742188 220.15625 32.167969 220.15625 L 27.179688 220.15625 L 27.179688 290.085938 C 27.179688 301.070312 36.160156 310.066406 47.125 310.066406 L 356.28125 310.066406 C 367.25 310.066406 376.230469 301.070312 376.230469 290.085938 L 376.230469 220.15625 L 371.242188 220.15625 C 354.667969 220.15625 341.324219 206.792969 341.324219 190.1875 C 341.324219 173.585938 354.667969 160.21875 371.242188 160.21875 L 376.230469 160.21875 L 376.230469 90.289062 C 376.230469 79.304688 367.25 70.3125 356.28125 70.3125 Z M 47.125 80.300781 L 121.921875 80.300781 C 121.921875 83.050781 124.164062 85.296875 126.910156 85.296875 C 129.65625 85.296875 131.894531 83.050781 131.894531 80.300781 L 356.28125 80.300781 C 361.855469 80.300781 366.253906 84.710938 366.253906 90.289062 L 366.253906 151.242188 C 346.738281 153.820312 331.351562 169.957031 331.351562 190.1875 C 331.351562 210.421875 346.738281 226.558594 366.253906 229.132812 L 366.253906 290.085938 C 366.253906 295.664062 361.855469 300.074219 356.28125 300.074219 L 131.894531 300.074219 C 131.894531 297.324219 129.65625 295.082031 126.910156 295.082031 C 124.164062 295.082031 121.921875 297.324219 121.921875 300.074219 L 47.125 300.074219 C 41.554688 300.074219 37.152344 295.664062 37.152344 290.085938 L 37.152344 229.132812 C 56.671875 226.558594 72.058594 210.421875 72.058594 190.1875 C 72.058594 169.957031 56.671875 153.820312 37.152344 151.242188 L 37.152344 90.289062 C 37.152344 84.710938 41.554688 80.300781 47.125 80.300781 Z M 126.910156 95.285156 C 124.164062 95.285156 121.921875 97.53125 121.921875 100.28125 C 121.921875 103.03125 124.164062 105.277344 126.910156 105.277344 C 129.65625 105.277344 131.894531 103.03125 131.894531 100.28125 C 131.894531 97.53125 129.65625 95.285156 126.910156 95.285156 Z M 126.910156 115.265625 C 124.164062 115.265625 121.921875 117.507812 121.921875 120.261719 C 121.921875 123.011719 124.164062 125.253906 126.910156 125.253906 C 129.65625 125.253906 131.894531 123.011719 131.894531 120.261719 C 131.894531 117.507812 129.65625 115.265625 126.910156 115.265625 Z M 126.910156 135.246094 C 124.164062 135.246094 121.921875 137.488281 121.921875 140.238281 C 121.921875 142.992188 124.164062 145.234375 126.910156 145.234375 C 129.65625 145.234375 131.894531 142.992188 131.894531 140.238281 C 131.894531 137.488281 129.65625 135.246094 126.910156 135.246094 Z M 126.910156 155.222656 C 124.164062 155.222656 121.921875 157.46875 121.921875 160.21875 C 121.921875 162.96875 124.164062 165.214844 126.910156 165.214844 C 129.65625 165.214844 131.894531 162.96875 131.894531 160.21875 C 131.894531 157.46875 129.65625 155.222656 126.910156 155.222656 Z M 126.910156 175.203125 C 124.164062 175.203125 121.921875 177.449219 121.921875 180.199219 C 121.921875 182.949219 124.164062 185.195312 126.910156 185.195312 C 129.65625 185.195312 131.894531 182.949219 131.894531 180.199219 C 131.894531 177.449219 129.65625 175.203125 126.910156 175.203125 Z M 126.910156 195.183594 C 124.164062 195.183594 121.921875 197.425781 121.921875 200.179688 C 121.921875 202.929688 124.164062 205.171875 126.910156 205.171875 C 129.65625 205.171875 131.894531 202.929688 131.894531 200.179688 C 131.894531 197.425781 129.65625 195.183594 126.910156 195.183594 Z M 126.910156 215.164062 C 124.164062 215.164062 121.921875 217.40625 121.921875 220.15625 C 121.921875 222.910156 124.164062 225.152344 126.910156 225.152344 C 129.65625 225.152344 131.894531 222.910156 131.894531 220.15625 C 131.894531 217.40625 129.65625 215.164062 126.910156 215.164062 Z M 126.910156 235.140625 C 124.164062 235.140625 121.921875 237.386719 121.921875 240.136719 C 121.921875 242.886719 124.164062 245.132812 126.910156 245.132812 C 129.65625 245.132812 131.894531 242.886719 131.894531 240.136719 C 131.894531 237.386719 129.65625 235.140625 126.910156 235.140625 Z M 126.910156 255.121094 C 124.164062 255.121094 121.921875 257.367188 121.921875 260.117188 C 121.921875 262.867188 124.164062 265.113281 126.910156 265.113281 C 129.65625 265.113281 131.894531 262.867188 131.894531 260.117188 C 131.894531 257.367188 129.65625 255.121094 126.910156 255.121094 Z M 126.910156 275.101562 C 124.164062 275.101562 121.921875 277.34375 121.921875 280.097656 C 121.921875 282.847656 124.164062 285.089844 126.910156 285.089844 C 129.65625 285.089844 131.894531 282.847656 131.894531 280.097656 C 131.894531 277.34375 129.65625 275.101562 126.910156 275.101562 Z M 126.910156 275.101562 " fill-opacity="1" fill-rule="nonzero"/></g><g fill="#dc2ade" fill-opacity="0.4"><g transform="translate(190.867601, 149.400233)"><g><path d="M 47.703125 -69.328125 C 48.753906 -69.867188 50.414062 -70.507812 52.6875 -71.25 C 54.957031 -71.988281 57.265625 -72.40625 59.609375 -72.5 C 63.722656 -72.675781 67.171875 -72.210938 69.953125 -71.109375 C 72.742188 -70.003906 74.484375 -68.285156 75.171875 -65.953125 C 76.421875 -62.003906 77.582031 -58.3125 78.65625 -54.875 C 79.738281 -51.445312 80.785156 -48.160156 81.796875 -45.015625 C 82.816406 -41.878906 83.8125 -38.765625 84.78125 -35.671875 C 85.75 -32.578125 86.695312 -29.335938 87.625 -25.953125 L 88.359375 -25.984375 C 88.972656 -31.992188 89.503906 -37.722656 89.953125 -43.171875 C 90.410156 -48.617188 90.816406 -53.96875 91.171875 -59.21875 C 91.535156 -64.476562 91.898438 -69.6875 92.265625 -74.84375 C 92.628906 -80.007812 92.992188 -85.242188 93.359375 -90.546875 C 96.890625 -92.753906 100.710938 -93.945312 104.828125 -94.125 C 108.441406 -94.28125 111.601562 -93.632812 114.3125 -92.1875 C 117.019531 -90.738281 118.453125 -88.15625 118.609375 -84.4375 C 118.703125 -82.28125 118.613281 -79.210938 118.34375 -75.234375 C 118.070312 -71.253906 117.671875 -66.804688 117.140625 -61.890625 C 116.617188 -56.972656 115.984375 -51.800781 115.234375 -46.375 C 114.484375 -40.957031 113.675781 -35.78125 112.8125 -30.84375 C 111.957031 -25.914062 111.050781 -21.445312 110.09375 -17.4375 C 109.144531 -13.4375 108.226562 -10.335938 107.34375 -8.140625 C 105.9375 -6.710938 103.585938 -5.484375 100.296875 -4.453125 C 97.003906 -3.429688 93.601562 -2.847656 90.09375 -2.703125 C 85.488281 -2.503906 81.570312 -2.945312 78.34375 -4.03125 C 75.125 -5.125 73.125 -6.78125 72.34375 -9 C 70.90625 -12.851562 69.332031 -17.4375 67.625 -22.75 C 65.925781 -28.0625 64.109375 -33.910156 62.171875 -40.296875 C 61.078125 -33.867188 59.925781 -27.59375 58.71875 -21.46875 C 57.519531 -15.34375 56.421875 -10.15625 55.421875 -5.90625 C 54.015625 -4.476562 51.863281 -3.257812 48.96875 -2.25 C 46.070312 -1.25 42.867188 -0.671875 39.359375 -0.515625 C 34.953125 -0.328125 30.9375 -0.769531 27.3125 -1.84375 C 23.695312 -2.914062 21.304688 -4.550781 20.140625 -6.75 C 19.179688 -8.457031 18.113281 -11.023438 16.9375 -14.453125 C 15.757812 -17.890625 14.535156 -21.804688 13.265625 -26.203125 C 11.992188 -30.609375 10.679688 -35.375 9.328125 -40.5 C 7.984375 -45.632812 6.738281 -50.769531 5.59375 -55.90625 C 4.457031 -61.050781 3.390625 -66.078125 2.390625 -70.984375 C 1.390625 -75.890625 0.609375 -80.390625 0.046875 -84.484375 C 1.359375 -85.816406 3.210938 -87.070312 5.609375 -88.25 C 8.003906 -89.425781 10.617188 -90.078125 13.453125 -90.203125 C 17.171875 -90.359375 20.257812 -89.679688 22.71875 -88.171875 C 25.1875 -86.660156 26.796875 -84.007812 27.546875 -80.21875 C 29.535156 -70.320312 31.1875 -62.066406 32.5 -55.453125 C 33.820312 -48.847656 34.890625 -43.429688 35.703125 -39.203125 C 36.523438 -34.984375 37.128906 -31.707031 37.515625 -29.375 C 37.910156 -27.050781 38.285156 -25.207031 38.640625 -23.84375 L 39.375 -23.875 C 40.09375 -27.820312 40.765625 -31.472656 41.390625 -34.828125 C 42.023438 -38.191406 42.6875 -41.578125 43.375 -44.984375 C 44.070312 -48.390625 44.773438 -52.039062 45.484375 -55.9375 C 46.203125 -59.832031 46.941406 -64.296875 47.703125 -69.328125 Z M 47.703125 -69.328125 "/></g></g></g><g fill="#dc2ade" fill-opacity="0.4"><g transform="translate(317.415393, 143.955025)"><g><path d="M 37.4375 -17.484375 C 39.101562 -17.554688 40.929688 -17.800781 42.921875 -18.21875 C 44.910156 -18.644531 46.378906 -19.175781 47.328125 -19.8125 L 46.828125 -31.53125 L 36.3125 -30.203125 C 33.582031 -29.890625 31.359375 -29.207031 29.640625 -28.15625 C 27.921875 -27.101562 27.101562 -25.601562 27.1875 -23.65625 C 27.269531 -21.695312 28.09375 -20.140625 29.65625 -18.984375 C 31.226562 -17.828125 33.820312 -17.328125 37.4375 -17.484375 Z M 33.796875 -75.0625 C 39.078125 -75.289062 43.914062 -74.960938 48.3125 -74.078125 C 52.71875 -73.191406 56.503906 -71.710938 59.671875 -69.640625 C 62.835938 -67.566406 65.328125 -64.878906 67.140625 -61.578125 C 68.953125 -58.285156 69.957031 -54.335938 70.15625 -49.734375 L 71.5625 -16.890625 C 71.675781 -14.347656 71.054688 -12.238281 69.703125 -10.5625 C 68.347656 -8.894531 66.722656 -7.429688 64.828125 -6.171875 C 58.628906 -2.085938 49.757812 0.203125 38.21875 0.703125 C 33.039062 0.921875 28.351562 0.632812 24.15625 -0.15625 C 19.957031 -0.957031 16.320312 -2.269531 13.25 -4.09375 C 10.1875 -5.925781 7.785156 -8.320312 6.046875 -11.28125 C 4.304688 -14.238281 3.351562 -17.722656 3.1875 -21.734375 C 2.894531 -28.472656 4.671875 -33.734375 8.515625 -37.515625 C 12.367188 -41.304688 18.476562 -43.828125 26.84375 -45.078125 L 45.984375 -47.953125 L 45.9375 -48.984375 C 45.8125 -51.828125 44.476562 -53.800781 41.9375 -54.90625 C 39.394531 -56.019531 35.773438 -56.476562 31.078125 -56.28125 C 27.359375 -56.125 23.753906 -55.578125 20.265625 -54.640625 C 16.773438 -53.710938 13.640625 -52.597656 10.859375 -51.296875 C 9.554688 -52.128906 8.425781 -53.425781 7.46875 -55.1875 C 6.507812 -56.957031 5.988281 -58.816406 5.90625 -60.765625 C 5.789062 -63.316406 6.3125 -65.378906 7.46875 -66.953125 C 8.632812 -68.523438 10.460938 -69.898438 12.953125 -71.078125 C 15.742188 -72.273438 19.054688 -73.203125 22.890625 -73.859375 C 26.734375 -74.515625 30.367188 -74.914062 33.796875 -75.0625 Z M 33.796875 -75.0625 "/></g></g></g><g fill="#dc2ade" fill-opacity="0.4"><g transform="translate(397.185964, 140.522587)"><g><path d="M 66.828125 -24.1875 C 67.148438 -16.75 64.613281 -10.804688 59.21875 -6.359375 C 53.832031 -1.921875 45.710938 0.53125 34.859375 1 C 30.753906 1.175781 26.925781 1.046875 23.375 0.609375 C 19.832031 0.171875 16.785156 -0.601562 14.234375 -1.71875 C 11.691406 -2.832031 9.675781 -4.285156 8.1875 -6.078125 C 6.695312 -7.867188 5.894531 -10.035156 5.78125 -12.578125 C 5.675781 -14.929688 6.078125 -16.9375 6.984375 -18.59375 C 7.890625 -20.25 9.003906 -21.644531 10.328125 -22.78125 C 13.234375 -21.34375 16.539062 -20.085938 20.25 -19.015625 C 23.96875 -17.953125 28.226562 -17.523438 33.03125 -17.734375 C 36.0625 -17.859375 38.363281 -18.394531 39.9375 -19.34375 C 41.507812 -20.300781 42.265625 -21.515625 42.203125 -22.984375 C 42.140625 -24.347656 41.503906 -25.394531 40.296875 -26.125 C 39.097656 -26.851562 37.117188 -27.40625 34.359375 -27.78125 L 29.921875 -28.46875 C 21.335938 -29.757812 14.894531 -32.097656 10.59375 -35.484375 C 6.289062 -38.878906 4 -43.898438 3.71875 -50.546875 C 3.5625 -54.171875 4.195312 -57.476562 5.625 -60.46875 C 7.050781 -63.46875 9.140625 -66.003906 11.890625 -68.078125 C 14.648438 -70.160156 17.984375 -71.828125 21.890625 -73.078125 C 25.804688 -74.328125 30.160156 -75.054688 34.953125 -75.265625 C 38.566406 -75.421875 41.976562 -75.296875 45.1875 -74.890625 C 48.394531 -74.484375 51.191406 -73.796875 53.578125 -72.828125 C 55.972656 -71.859375 57.890625 -70.546875 59.328125 -68.890625 C 60.773438 -67.234375 61.546875 -65.234375 61.640625 -62.890625 C 61.742188 -60.640625 61.410156 -58.6875 60.640625 -57.03125 C 59.878906 -55.382812 58.890625 -54 57.671875 -52.875 C 56.867188 -53.332031 55.671875 -53.796875 54.078125 -54.265625 C 52.492188 -54.734375 50.757812 -55.144531 48.875 -55.5 C 47 -55.863281 45.101562 -56.148438 43.1875 -56.359375 C 41.269531 -56.578125 39.53125 -56.648438 37.96875 -56.578125 C 34.738281 -56.441406 32.257812 -55.96875 30.53125 -55.15625 C 28.800781 -54.34375 27.972656 -53.15625 28.046875 -51.59375 C 28.085938 -50.519531 28.613281 -49.660156 29.625 -49.015625 C 30.632812 -48.367188 32.519531 -47.816406 35.28125 -47.359375 L 39.875 -46.515625 C 49.351562 -44.785156 56.148438 -42.117188 60.265625 -38.515625 C 64.390625 -34.921875 66.578125 -30.144531 66.828125 -24.1875 Z M 66.828125 -24.1875 "/></g></g></g><g fill="#dc2ade" fill-opacity="0.4"><g transform="translate(469.331419, 137.41825)"><g><path d="M 3.125 -91.375 C 2.96875 -95.082031 4.078125 -98.257812 6.453125 -100.90625 C 8.835938 -103.5625 12.085938 -104.976562 16.203125 -105.15625 C 20.296875 -105.332031 23.644531 -104.203125 26.25 -101.765625 C 28.851562 -99.328125 30.234375 -96.253906 30.390625 -92.546875 C 30.554688 -88.828125 29.445312 -85.640625 27.0625 -82.984375 C 24.675781 -80.335938 21.4375 -78.925781 17.34375 -78.75 C 13.226562 -78.570312 9.867188 -79.703125 7.265625 -82.140625 C 4.671875 -84.578125 3.289062 -87.65625 3.125 -91.375 Z M 33.140625 -1.5625 C 32.066406 -1.332031 30.484375 -1 28.390625 -0.5625 C 26.304688 -0.125 24.191406 0.132812 22.046875 0.21875 C 19.890625 0.3125 17.953125 0.25 16.234375 0.03125 C 14.515625 -0.1875 13.046875 -0.707031 11.828125 -1.53125 C 10.617188 -2.363281 9.664062 -3.523438 8.96875 -5.015625 C 8.269531 -6.515625 7.867188 -8.476562 7.765625 -10.90625 L 5.203125 -70.609375 C 6.253906 -70.847656 7.820312 -71.179688 9.90625 -71.609375 C 12 -72.035156 14.125 -72.296875 16.28125 -72.390625 C 18.4375 -72.484375 20.367188 -72.421875 22.078125 -72.203125 C 23.796875 -71.984375 25.265625 -71.457031 26.484375 -70.625 C 27.703125 -69.800781 28.660156 -68.644531 29.359375 -67.15625 C 30.054688 -65.664062 30.457031 -63.695312 30.5625 -61.25 Z M 33.140625 -1.5625 "/></g></g></g><g fill="#dc2ade" fill-opacity="1"><g transform="translate(199.569643, 146.494674)"><g><path d="M 47.703125 -69.328125 C 48.753906 -69.867188 50.414062 -70.507812 52.6875 -71.25 C 54.957031 -71.988281 57.265625 -72.40625 59.609375 -72.5 C 63.722656 -72.675781 67.171875 -72.210938 69.953125 -71.109375 C 72.742188 -70.003906 74.484375 -68.285156 75.171875 -65.953125 C 76.421875 -62.003906 77.582031 -58.3125 78.65625 -54.875 C 79.738281 -51.445312 80.785156 -48.160156 81.796875 -45.015625 C 82.816406 -41.878906 83.8125 -38.765625 84.78125 -35.671875 C 85.75 -32.578125 86.695312 -29.335938 87.625 -25.953125 L 88.359375 -25.984375 C 88.972656 -31.992188 89.503906 -37.722656 89.953125 -43.171875 C 90.410156 -48.617188 90.816406 -53.96875 91.171875 -59.21875 C 91.535156 -64.476562 91.898438 -69.6875 92.265625 -74.84375 C 92.628906 -80.007812 92.992188 -85.242188 93.359375 -90.546875 C 96.890625 -92.753906 100.710938 -93.945312 104.828125 -94.125 C 108.441406 -94.28125 111.601562 -93.632812 114.3125 -92.1875 C 117.019531 -90.738281 118.453125 -88.15625 118.609375 -84.4375 C 118.703125 -82.28125 118.613281 -79.210938 118.34375 -75.234375 C 118.070312 -71.253906 117.671875 -66.804688 117.140625 -61.890625 C 116.617188 -56.972656 115.984375 -51.800781 115.234375 -46.375 C 114.484375 -40.957031 113.675781 -35.78125 112.8125 -30.84375 C 111.957031 -25.914062 111.050781 -21.445312 110.09375 -17.4375 C 109.144531 -13.4375 108.226562 -10.335938 107.34375 -8.140625 C 105.9375 -6.710938 103.585938 -5.484375 100.296875 -4.453125 C 97.003906 -3.429688 93.601562 -2.847656 90.09375 -2.703125 C 85.488281 -2.503906 81.570312 -2.945312 78.34375 -4.03125 C 75.125 -5.125 73.125 -6.78125 72.34375 -9 C 70.90625 -12.851562 69.332031 -17.4375 67.625 -22.75 C 65.925781 -28.0625 64.109375 -33.910156 62.171875 -40.296875 C 61.078125 -33.867188 59.925781 -27.59375 58.71875 -21.46875 C 57.519531 -15.34375 56.421875 -10.15625 55.421875 -5.90625 C 54.015625 -4.476562 51.863281 -3.257812 48.96875 -2.25 C 46.070312 -1.25 42.867188 -0.671875 39.359375 -0.515625 C 34.953125 -0.328125 30.9375 -0.769531 27.3125 -1.84375 C 23.695312 -2.914062 21.304688 -4.550781 20.140625 -6.75 C 19.179688 -8.457031 18.113281 -11.023438 16.9375 -14.453125 C 15.757812 -17.890625 14.535156 -21.804688 13.265625 -26.203125 C 11.992188 -30.609375 10.679688 -35.375 9.328125 -40.5 C 7.984375 -45.632812 6.738281 -50.769531 5.59375 -55.90625 C 4.457031 -61.050781 3.390625 -66.078125 2.390625 -70.984375 C 1.390625 -75.890625 0.609375 -80.390625 0.046875 -84.484375 C 1.359375 -85.816406 3.210938 -87.070312 5.609375 -88.25 C 8.003906 -89.425781 10.617188 -90.078125 13.453125 -90.203125 C 17.171875 -90.359375 20.257812 -89.679688 22.71875 -88.171875 C 25.1875 -86.660156 26.796875 -84.007812 27.546875 -80.21875 C 29.535156 -70.320312 31.1875 -62.066406 32.5 -55.453125 C 33.820312 -48.847656 34.890625 -43.429688 35.703125 -39.203125 C 36.523438 -34.984375 37.128906 -31.707031 37.515625 -29.375 C 37.910156 -27.050781 38.285156 -25.207031 38.640625 -23.84375 L 39.375 -23.875 C 40.09375 -27.820312 40.765625 -31.472656 41.390625 -34.828125 C 42.023438 -38.191406 42.6875 -41.578125 43.375 -44.984375 C 44.070312 -48.390625 44.773438 -52.039062 45.484375 -55.9375 C 46.203125 -59.832031 46.941406 -64.296875 47.703125 -69.328125 Z M 47.703125 -69.328125 "/></g></g></g><g fill="#dc2ade" fill-opacity="1"><g transform="translate(326.117435, 141.049465)"><g><path d="M 37.4375 -17.484375 C 39.101562 -17.554688 40.929688 -17.800781 42.921875 -18.21875 C 44.910156 -18.644531 46.378906 -19.175781 47.328125 -19.8125 L 46.828125 -31.53125 L 36.3125 -30.203125 C 33.582031 -29.890625 31.359375 -29.207031 29.640625 -28.15625 C 27.921875 -27.101562 27.101562 -25.601562 27.1875 -23.65625 C 27.269531 -21.695312 28.09375 -20.140625 29.65625 -18.984375 C 31.226562 -17.828125 33.820312 -17.328125 37.4375 -17.484375 Z M 33.796875 -75.0625 C 39.078125 -75.289062 43.914062 -74.960938 48.3125 -74.078125 C 52.71875 -73.191406 56.503906 -71.710938 59.671875 -69.640625 C 62.835938 -67.566406 65.328125 -64.878906 67.140625 -61.578125 C 68.953125 -58.285156 69.957031 -54.335938 70.15625 -49.734375 L 71.5625 -16.890625 C 71.675781 -14.347656 71.054688 -12.238281 69.703125 -10.5625 C 68.347656 -8.894531 66.722656 -7.429688 64.828125 -6.171875 C 58.628906 -2.085938 49.757812 0.203125 38.21875 0.703125 C 33.039062 0.921875 28.351562 0.632812 24.15625 -0.15625 C 19.957031 -0.957031 16.320312 -2.269531 13.25 -4.09375 C 10.1875 -5.925781 7.785156 -8.320312 6.046875 -11.28125 C 4.304688 -14.238281 3.351562 -17.722656 3.1875 -21.734375 C 2.894531 -28.472656 4.671875 -33.734375 8.515625 -37.515625 C 12.367188 -41.304688 18.476562 -43.828125 26.84375 -45.078125 L 45.984375 -47.953125 L 45.9375 -48.984375 C 45.8125 -51.828125 44.476562 -53.800781 41.9375 -54.90625 C 39.394531 -56.019531 35.773438 -56.476562 31.078125 -56.28125 C 27.359375 -56.125 23.753906 -55.578125 20.265625 -54.640625 C 16.773438 -53.710938 13.640625 -52.597656 10.859375 -51.296875 C 9.554688 -52.128906 8.425781 -53.425781 7.46875 -55.1875 C 6.507812 -56.957031 5.988281 -58.816406 5.90625 -60.765625 C 5.789062 -63.316406 6.3125 -65.378906 7.46875 -66.953125 C 8.632812 -68.523438 10.460938 -69.898438 12.953125 -71.078125 C 15.742188 -72.273438 19.054688 -73.203125 22.890625 -73.859375 C 26.734375 -74.515625 30.367188 -74.914062 33.796875 -75.0625 Z M 33.796875 -75.0625 "/></g></g></g><g fill="#dc2ade" fill-opacity="1"><g transform="translate(405.888006, 137.617028)"><g><path d="M 66.828125 -24.1875 C 67.148438 -16.75 64.613281 -10.804688 59.21875 -6.359375 C 53.832031 -1.921875 45.710938 0.53125 34.859375 1 C 30.753906 1.175781 26.925781 1.046875 23.375 0.609375 C 19.832031 0.171875 16.785156 -0.601562 14.234375 -1.71875 C 11.691406 -2.832031 9.675781 -4.285156 8.1875 -6.078125 C 6.695312 -7.867188 5.894531 -10.035156 5.78125 -12.578125 C 5.675781 -14.929688 6.078125 -16.9375 6.984375 -18.59375 C 7.890625 -20.25 9.003906 -21.644531 10.328125 -22.78125 C 13.234375 -21.34375 16.539062 -20.085938 20.25 -19.015625 C 23.96875 -17.953125 28.226562 -17.523438 33.03125 -17.734375 C 36.0625 -17.859375 38.363281 -18.394531 39.9375 -19.34375 C 41.507812 -20.300781 42.265625 -21.515625 42.203125 -22.984375 C 42.140625 -24.347656 41.503906 -25.394531 40.296875 -26.125 C 39.097656 -26.851562 37.117188 -27.40625 34.359375 -27.78125 L 29.921875 -28.46875 C 21.335938 -29.757812 14.894531 -32.097656 10.59375 -35.484375 C 6.289062 -38.878906 4 -43.898438 3.71875 -50.546875 C 3.5625 -54.171875 4.195312 -57.476562 5.625 -60.46875 C 7.050781 -63.46875 9.140625 -66.003906 11.890625 -68.078125 C 14.648438 -70.160156 17.984375 -71.828125 21.890625 -73.078125 C 25.804688 -74.328125 30.160156 -75.054688 34.953125 -75.265625 C 38.566406 -75.421875 41.976562 -75.296875 45.1875 -74.890625 C 48.394531 -74.484375 51.191406 -73.796875 53.578125 -72.828125 C 55.972656 -71.859375 57.890625 -70.546875 59.328125 -68.890625 C 60.773438 -67.234375 61.546875 -65.234375 61.640625 -62.890625 C 61.742188 -60.640625 61.410156 -58.6875 60.640625 -57.03125 C 59.878906 -55.382812 58.890625 -54 57.671875 -52.875 C 56.867188 -53.332031 55.671875 -53.796875 54.078125 -54.265625 C 52.492188 -54.734375 50.757812 -55.144531 48.875 -55.5 C 47 -55.863281 45.101562 -56.148438 43.1875 -56.359375 C 41.269531 -56.578125 39.53125 -56.648438 37.96875 -56.578125 C 34.738281 -56.441406 32.257812 -55.96875 30.53125 -55.15625 C 28.800781 -54.34375 27.972656 -53.15625 28.046875 -51.59375 C 28.085938 -50.519531 28.613281 -49.660156 29.625 -49.015625 C 30.632812 -48.367188 32.519531 -47.816406 35.28125 -47.359375 L 39.875 -46.515625 C 49.351562 -44.785156 56.148438 -42.117188 60.265625 -38.515625 C 64.390625 -34.921875 66.578125 -30.144531 66.828125 -24.1875 Z M 66.828125 -24.1875 "/></g></g></g><g fill="#dc2ade" fill-opacity="1"><g transform="translate(478.033461, 134.51269)"><g><path d="M 3.125 -91.375 C 2.96875 -95.082031 4.078125 -98.257812 6.453125 -100.90625 C 8.835938 -103.5625 12.085938 -104.976562 16.203125 -105.15625 C 20.296875 -105.332031 23.644531 -104.203125 26.25 -101.765625 C 28.851562 -99.328125 30.234375 -96.253906 30.390625 -92.546875 C 30.554688 -88.828125 29.445312 -85.640625 27.0625 -82.984375 C 24.675781 -80.335938 21.4375 -78.925781 17.34375 -78.75 C 13.226562 -78.570312 9.867188 -79.703125 7.265625 -82.140625 C 4.671875 -84.578125 3.289062 -87.65625 3.125 -91.375 Z M 33.140625 -1.5625 C 32.066406 -1.332031 30.484375 -1 28.390625 -0.5625 C 26.304688 -0.125 24.191406 0.132812 22.046875 0.21875 C 19.890625 0.3125 17.953125 0.25 16.234375 0.03125 C 14.515625 -0.1875 13.046875 -0.707031 11.828125 -1.53125 C 10.617188 -2.363281 9.664062 -3.523438 8.96875 -5.015625 C 8.269531 -6.515625 7.867188 -8.476562 7.765625 -10.90625 L 5.203125 -70.609375 C 6.253906 -70.847656 7.820312 -71.179688 9.90625 -71.609375 C 12 -72.035156 14.125 -72.296875 16.28125 -72.390625 C 18.4375 -72.484375 20.367188 -72.421875 22.078125 -72.203125 C 23.796875 -71.984375 25.265625 -71.457031 26.484375 -70.625 C 27.703125 -69.800781 28.660156 -68.644531 29.359375 -67.15625 C 30.054688 -65.664062 30.457031 -63.695312 30.5625 -61.25 Z M 33.140625 -1.5625 "/></g></g></g><g fill="#dc2ade" fill-opacity="0.4314"><g transform="translate(144.88153, 220.84543)"><g><path d="M 41.421875 -72.796875 C 45.390625 -72.796875 49.285156 -72.238281 53.109375 -71.125 C 56.941406 -70.007812 60.257812 -68.34375 63.0625 -66.125 C 65.96875 -68.0625 69.238281 -69.65625 72.875 -70.90625 C 76.507812 -72.164062 80.894531 -72.796875 86.03125 -72.796875 C 89.707031 -72.796875 93.3125 -72.3125 96.84375 -71.34375 C 100.382812 -70.375 103.535156 -68.847656 106.296875 -66.765625 C 109.054688 -64.679688 111.257812 -61.921875 112.90625 -58.484375 C 114.550781 -55.046875 115.375 -50.859375 115.375 -45.921875 L 115.375 -0.140625 C 114.40625 0.148438 112.878906 0.4375 110.796875 0.71875 C 108.710938 1.007812 106.554688 1.15625 104.328125 1.15625 C 102.203125 1.15625 100.289062 1.007812 98.59375 0.71875 C 96.894531 0.4375 95.460938 -0.140625 94.296875 -1.015625 C 93.140625 -1.890625 92.242188 -3.078125 91.609375 -4.578125 C 90.984375 -6.078125 90.671875 -8.039062 90.671875 -10.46875 L 90.671875 -45.1875 C 90.671875 -48.09375 89.847656 -50.195312 88.203125 -51.5 C 86.554688 -52.8125 84.328125 -53.46875 81.515625 -53.46875 C 80.160156 -53.46875 78.707031 -53.15625 77.15625 -52.53125 C 75.613281 -51.90625 74.453125 -51.25 73.671875 -50.5625 C 73.765625 -50.175781 73.8125 -49.8125 73.8125 -49.46875 C 73.8125 -49.132812 73.8125 -48.820312 73.8125 -48.53125 L 73.8125 -0.140625 C 72.75 0.148438 71.175781 0.4375 69.09375 0.71875 C 67.007812 1.007812 64.90625 1.15625 62.78125 1.15625 C 60.644531 1.15625 58.726562 1.007812 57.03125 0.71875 C 55.34375 0.4375 53.914062 -0.140625 52.75 -1.015625 C 51.582031 -1.890625 50.679688 -3.078125 50.046875 -4.578125 C 49.421875 -6.078125 49.109375 -8.039062 49.109375 -10.46875 L 49.109375 -45.1875 C 49.109375 -48.09375 48.210938 -50.195312 46.421875 -51.5 C 44.628906 -52.8125 42.476562 -53.46875 39.96875 -53.46875 C 38.21875 -53.46875 36.710938 -53.203125 35.453125 -52.671875 C 34.191406 -52.140625 33.128906 -51.632812 32.265625 -51.15625 L 32.265625 -0.140625 C 31.296875 0.148438 29.769531 0.4375 27.6875 0.71875 C 25.601562 1.007812 23.445312 1.15625 21.21875 1.15625 C 19.082031 1.15625 17.164062 1.007812 15.46875 0.71875 C 13.78125 0.4375 12.351562 -0.140625 11.1875 -1.015625 C 10.03125 -1.890625 9.132812 -3.078125 8.5 -4.578125 C 7.875 -6.078125 7.5625 -8.039062 7.5625 -10.46875 L 7.5625 -54.34375 C 7.5625 -56.957031 8.117188 -59.039062 9.234375 -60.59375 C 10.347656 -62.144531 11.875 -63.597656 13.8125 -64.953125 C 17.101562 -67.273438 21.191406 -69.160156 26.078125 -70.609375 C 30.972656 -72.066406 36.085938 -72.796875 41.421875 -72.796875 Z M 41.421875 -72.796875 "/></g></g></g><g fill="#dc2ade" fill-opacity="0.4314"><g transform="translate(267.805532, 220.84543)"><g><path d="M 80.65625 -35.3125 C 80.65625 -29.300781 79.734375 -23.945312 77.890625 -19.25 C 76.046875 -14.550781 73.453125 -10.601562 70.109375 -7.40625 C 66.765625 -4.207031 62.769531 -1.785156 58.125 -0.140625 C 53.476562 1.503906 48.296875 2.328125 42.578125 2.328125 C 36.859375 2.328125 31.671875 1.457031 27.015625 -0.28125 C 22.367188 -2.03125 18.375 -4.523438 15.03125 -7.765625 C 11.695312 -11.015625 9.109375 -14.960938 7.265625 -19.609375 C 5.421875 -24.265625 4.5 -29.5 4.5 -35.3125 C 4.5 -41.03125 5.421875 -46.210938 7.265625 -50.859375 C 9.109375 -55.503906 11.695312 -59.453125 15.03125 -62.703125 C 18.375 -65.953125 22.367188 -68.445312 27.015625 -70.1875 C 31.671875 -71.925781 36.859375 -72.796875 42.578125 -72.796875 C 48.296875 -72.796875 53.476562 -71.898438 58.125 -70.109375 C 62.769531 -68.316406 66.765625 -65.796875 70.109375 -62.546875 C 73.453125 -59.304688 76.046875 -55.359375 77.890625 -50.703125 C 79.734375 -46.054688 80.65625 -40.925781 80.65625 -35.3125 Z M 29.796875 -35.3125 C 29.796875 -29.40625 30.929688 -24.875 33.203125 -21.71875 C 35.484375 -18.570312 38.65625 -17 42.71875 -17 C 46.789062 -17 49.914062 -18.597656 52.09375 -21.796875 C 54.269531 -24.992188 55.359375 -29.5 55.359375 -35.3125 C 55.359375 -41.125 54.242188 -45.601562 52.015625 -48.75 C 49.796875 -51.894531 46.648438 -53.46875 42.578125 -53.46875 C 38.503906 -53.46875 35.351562 -51.894531 33.125 -48.75 C 30.90625 -45.601562 29.796875 -41.125 29.796875 -35.3125 Z M 29.796875 -35.3125 "/></g></g></g><g fill="#dc2ade" fill-opacity="0.4314"><g transform="translate(352.951485, 220.84543)"><g><path d="M 4.5 -35.3125 C 4.5 -41.707031 5.46875 -47.253906 7.40625 -51.953125 C 9.34375 -56.648438 12.03125 -60.546875 15.46875 -63.640625 C 18.914062 -66.742188 22.9375 -69.046875 27.53125 -70.546875 C 32.132812 -72.046875 37.101562 -72.796875 42.4375 -72.796875 C 44.375 -72.796875 46.257812 -72.625 48.09375 -72.28125 C 49.9375 -71.945312 51.441406 -71.539062 52.609375 -71.0625 L 52.609375 -94.59375 C 53.578125 -94.882812 55.125 -95.195312 57.25 -95.53125 C 59.382812 -95.875 61.566406 -96.046875 63.796875 -96.046875 C 65.921875 -96.046875 67.832031 -95.898438 69.53125 -95.609375 C 71.226562 -95.328125 72.65625 -94.75 73.8125 -93.875 C 74.976562 -93 75.851562 -91.8125 76.4375 -90.3125 C 77.019531 -88.8125 77.3125 -86.847656 77.3125 -84.421875 L 77.3125 -15.546875 C 77.3125 -10.992188 75.175781 -7.363281 70.90625 -4.65625 C 68.101562 -2.8125 64.472656 -1.1875 60.015625 0.21875 C 55.554688 1.625 50.421875 2.328125 44.609375 2.328125 C 38.316406 2.328125 32.675781 1.457031 27.6875 -0.28125 C 22.695312 -2.03125 18.476562 -4.550781 15.03125 -7.84375 C 11.59375 -11.132812 8.976562 -15.082031 7.1875 -19.6875 C 5.394531 -24.289062 4.5 -29.5 4.5 -35.3125 Z M 45.78125 -53.46875 C 40.539062 -53.46875 36.515625 -51.96875 33.703125 -48.96875 C 30.898438 -45.96875 29.5 -41.414062 29.5 -35.3125 C 29.5 -29.300781 30.804688 -24.769531 33.421875 -21.71875 C 36.035156 -18.664062 39.8125 -17.140625 44.75 -17.140625 C 46.5 -17.140625 48.078125 -17.40625 49.484375 -17.9375 C 50.890625 -18.476562 51.976562 -19.085938 52.75 -19.765625 L 52.75 -51.734375 C 50.8125 -52.890625 48.488281 -53.46875 45.78125 -53.46875 Z M 45.78125 -53.46875 "/></g></g></g><g fill="#dc2ade" fill-opacity="0.4314"><g transform="translate(438.097438, 220.84543)"><g><path d="M 80.65625 -35.3125 C 80.65625 -29.300781 79.734375 -23.945312 77.890625 -19.25 C 76.046875 -14.550781 73.453125 -10.601562 70.109375 -7.40625 C 66.765625 -4.207031 62.769531 -1.785156 58.125 -0.140625 C 53.476562 1.503906 48.296875 2.328125 42.578125 2.328125 C 36.859375 2.328125 31.671875 1.457031 27.015625 -0.28125 C 22.367188 -2.03125 18.375 -4.523438 15.03125 -7.765625 C 11.695312 -11.015625 9.109375 -14.960938 7.265625 -19.609375 C 5.421875 -24.265625 4.5 -29.5 4.5 -35.3125 C 4.5 -41.03125 5.421875 -46.210938 7.265625 -50.859375 C 9.109375 -55.503906 11.695312 -59.453125 15.03125 -62.703125 C 18.375 -65.953125 22.367188 -68.445312 27.015625 -70.1875 C 31.671875 -71.925781 36.859375 -72.796875 42.578125 -72.796875 C 48.296875 -72.796875 53.476562 -71.898438 58.125 -70.109375 C 62.769531 -68.316406 66.765625 -65.796875 70.109375 -62.546875 C 73.453125 -59.304688 76.046875 -55.359375 77.890625 -50.703125 C 79.734375 -46.054688 80.65625 -40.925781 80.65625 -35.3125 Z M 29.796875 -35.3125 C 29.796875 -29.40625 30.929688 -24.875 33.203125 -21.71875 C 35.484375 -18.570312 38.65625 -17 42.71875 -17 C 46.789062 -17 49.914062 -18.597656 52.09375 -21.796875 C 54.269531 -24.992188 55.359375 -29.5 55.359375 -35.3125 C 55.359375 -41.125 54.242188 -45.601562 52.015625 -48.75 C 49.796875 -51.894531 46.648438 -53.46875 42.578125 -53.46875 C 38.503906 -53.46875 35.351562 -51.894531 33.125 -48.75 C 30.90625 -45.601562 29.796875 -41.125 29.796875 -35.3125 Z M 29.796875 -35.3125 "/></g></g></g><g fill="#e8f044" fill-opacity="1"><g transform="translate(155.226475, 216.874378)"><g><path d="M 41.421875 -72.796875 C 45.390625 -72.796875 49.285156 -72.238281 53.109375 -71.125 C 56.941406 -70.007812 60.257812 -68.34375 63.0625 -66.125 C 65.96875 -68.0625 69.238281 -69.65625 72.875 -70.90625 C 76.507812 -72.164062 80.894531 -72.796875 86.03125 -72.796875 C 89.707031 -72.796875 93.3125 -72.3125 96.84375 -71.34375 C 100.382812 -70.375 103.535156 -68.847656 106.296875 -66.765625 C 109.054688 -64.679688 111.257812 -61.921875 112.90625 -58.484375 C 114.550781 -55.046875 115.375 -50.859375 115.375 -45.921875 L 115.375 -0.140625 C 114.40625 0.148438 112.878906 0.4375 110.796875 0.71875 C 108.710938 1.007812 106.554688 1.15625 104.328125 1.15625 C 102.203125 1.15625 100.289062 1.007812 98.59375 0.71875 C 96.894531 0.4375 95.460938 -0.140625 94.296875 -1.015625 C 93.140625 -1.890625 92.242188 -3.078125 91.609375 -4.578125 C 90.984375 -6.078125 90.671875 -8.039062 90.671875 -10.46875 L 90.671875 -45.1875 C 90.671875 -48.09375 89.847656 -50.195312 88.203125 -51.5 C 86.554688 -52.8125 84.328125 -53.46875 81.515625 -53.46875 C 80.160156 -53.46875 78.707031 -53.15625 77.15625 -52.53125 C 75.613281 -51.90625 74.453125 -51.25 73.671875 -50.5625 C 73.765625 -50.175781 73.8125 -49.8125 73.8125 -49.46875 C 73.8125 -49.132812 73.8125 -48.820312 73.8125 -48.53125 L 73.8125 -0.140625 C 72.75 0.148438 71.175781 0.4375 69.09375 0.71875 C 67.007812 1.007812 64.90625 1.15625 62.78125 1.15625 C 60.644531 1.15625 58.726562 1.007812 57.03125 0.71875 C 55.34375 0.4375 53.914062 -0.140625 52.75 -1.015625 C 51.582031 -1.890625 50.679688 -3.078125 50.046875 -4.578125 C 49.421875 -6.078125 49.109375 -8.039062 49.109375 -10.46875 L 49.109375 -45.1875 C 49.109375 -48.09375 48.210938 -50.195312 46.421875 -51.5 C 44.628906 -52.8125 42.476562 -53.46875 39.96875 -53.46875 C 38.21875 -53.46875 36.710938 -53.203125 35.453125 -52.671875 C 34.191406 -52.140625 33.128906 -51.632812 32.265625 -51.15625 L 32.265625 -0.140625 C 31.296875 0.148438 29.769531 0.4375 27.6875 0.71875 C 25.601562 1.007812 23.445312 1.15625 21.21875 1.15625 C 19.082031 1.15625 17.164062 1.007812 15.46875 0.71875 C 13.78125 0.4375 12.351562 -0.140625 11.1875 -1.015625 C 10.03125 -1.890625 9.132812 -3.078125 8.5 -4.578125 C 7.875 -6.078125 7.5625 -8.039062 7.5625 -10.46875 L 7.5625 -54.34375 C 7.5625 -56.957031 8.117188 -59.039062 9.234375 -60.59375 C 10.347656 -62.144531 11.875 -63.597656 13.8125 -64.953125 C 17.101562 -67.273438 21.191406 -69.160156 26.078125 -70.609375 C 30.972656 -72.066406 36.085938 -72.796875 41.421875 -72.796875 Z M 41.421875 -72.796875 "/></g></g></g><g fill="#e8f044" fill-opacity="1"><g transform="translate(278.150477, 216.874378)"><g><path d="M 80.65625 -35.3125 C 80.65625 -29.300781 79.734375 -23.945312 77.890625 -19.25 C 76.046875 -14.550781 73.453125 -10.601562 70.109375 -7.40625 C 66.765625 -4.207031 62.769531 -1.785156 58.125 -0.140625 C 53.476562 1.503906 48.296875 2.328125 42.578125 2.328125 C 36.859375 2.328125 31.671875 1.457031 27.015625 -0.28125 C 22.367188 -2.03125 18.375 -4.523438 15.03125 -7.765625 C 11.695312 -11.015625 9.109375 -14.960938 7.265625 -19.609375 C 5.421875 -24.265625 4.5 -29.5 4.5 -35.3125 C 4.5 -41.03125 5.421875 -46.210938 7.265625 -50.859375 C 9.109375 -55.503906 11.695312 -59.453125 15.03125 -62.703125 C 18.375 -65.953125 22.367188 -68.445312 27.015625 -70.1875 C 31.671875 -71.925781 36.859375 -72.796875 42.578125 -72.796875 C 48.296875 -72.796875 53.476562 -71.898438 58.125 -70.109375 C 62.769531 -68.316406 66.765625 -65.796875 70.109375 -62.546875 C 73.453125 -59.304688 76.046875 -55.359375 77.890625 -50.703125 C 79.734375 -46.054688 80.65625 -40.925781 80.65625 -35.3125 Z M 29.796875 -35.3125 C 29.796875 -29.40625 30.929688 -24.875 33.203125 -21.71875 C 35.484375 -18.570312 38.65625 -17 42.71875 -17 C 46.789062 -17 49.914062 -18.597656 52.09375 -21.796875 C 54.269531 -24.992188 55.359375 -29.5 55.359375 -35.3125 C 55.359375 -41.125 54.242188 -45.601562 52.015625 -48.75 C 49.796875 -51.894531 46.648438 -53.46875 42.578125 -53.46875 C 38.503906 -53.46875 35.351562 -51.894531 33.125 -48.75 C 30.90625 -45.601562 29.796875 -41.125 29.796875 -35.3125 Z M 29.796875 -35.3125 "/></g></g></g><g fill="#e8f044" fill-opacity="1"><g transform="translate(363.29643, 216.874378)"><g><path d="M 4.5 -35.3125 C 4.5 -41.707031 5.46875 -47.253906 7.40625 -51.953125 C 9.34375 -56.648438 12.03125 -60.546875 15.46875 -63.640625 C 18.914062 -66.742188 22.9375 -69.046875 27.53125 -70.546875 C 32.132812 -72.046875 37.101562 -72.796875 42.4375 -72.796875 C 44.375 -72.796875 46.257812 -72.625 48.09375 -72.28125 C 49.9375 -71.945312 51.441406 -71.539062 52.609375 -71.0625 L 52.609375 -94.59375 C 53.578125 -94.882812 55.125 -95.195312 57.25 -95.53125 C 59.382812 -95.875 61.566406 -96.046875 63.796875 -96.046875 C 65.921875 -96.046875 67.832031 -95.898438 69.53125 -95.609375 C 71.226562 -95.328125 72.65625 -94.75 73.8125 -93.875 C 74.976562 -93 75.851562 -91.8125 76.4375 -90.3125 C 77.019531 -88.8125 77.3125 -86.847656 77.3125 -84.421875 L 77.3125 -15.546875 C 77.3125 -10.992188 75.175781 -7.363281 70.90625 -4.65625 C 68.101562 -2.8125 64.472656 -1.1875 60.015625 0.21875 C 55.554688 1.625 50.421875 2.328125 44.609375 2.328125 C 38.316406 2.328125 32.675781 1.457031 27.6875 -0.28125 C 22.695312 -2.03125 18.476562 -4.550781 15.03125 -7.84375 C 11.59375 -11.132812 8.976562 -15.082031 7.1875 -19.6875 C 5.394531 -24.289062 4.5 -29.5 4.5 -35.3125 Z M 45.78125 -53.46875 C 40.539062 -53.46875 36.515625 -51.96875 33.703125 -48.96875 C 30.898438 -45.96875 29.5 -41.414062 29.5 -35.3125 C 29.5 -29.300781 30.804688 -24.769531 33.421875 -21.71875 C 36.035156 -18.664062 39.8125 -17.140625 44.75 -17.140625 C 46.5 -17.140625 48.078125 -17.40625 49.484375 -17.9375 C 50.890625 -18.476562 51.976562 -19.085938 52.75 -19.765625 L 52.75 -51.734375 C 50.8125 -52.890625 48.488281 -53.46875 45.78125 -53.46875 Z M 45.78125 -53.46875 "/></g></g></g><g fill="#e8f044" fill-opacity="1"><g transform="translate(448.442383, 216.874378)"><g><path d="M 80.65625 -35.3125 C 80.65625 -29.300781 79.734375 -23.945312 77.890625 -19.25 C 76.046875 -14.550781 73.453125 -10.601562 70.109375 -7.40625 C 66.765625 -4.207031 62.769531 -1.785156 58.125 -0.140625 C 53.476562 1.503906 48.296875 2.328125 42.578125 2.328125 C 36.859375 2.328125 31.671875 1.457031 27.015625 -0.28125 C 22.367188 -2.03125 18.375 -4.523438 15.03125 -7.765625 C 11.695312 -11.015625 9.109375 -14.960938 7.265625 -19.609375 C 5.421875 -24.265625 4.5 -29.5 4.5 -35.3125 C 4.5 -41.03125 5.421875 -46.210938 7.265625 -50.859375 C 9.109375 -55.503906 11.695312 -59.453125 15.03125 -62.703125 C 18.375 -65.953125 22.367188 -68.445312 27.015625 -70.1875 C 31.671875 -71.925781 36.859375 -72.796875 42.578125 -72.796875 C 48.296875 -72.796875 53.476562 -71.898438 58.125 -70.109375 C 62.769531 -68.316406 66.765625 -65.796875 70.109375 -62.546875 C 73.453125 -59.304688 76.046875 -55.359375 77.890625 -50.703125 C 79.734375 -46.054688 80.65625 -40.925781 80.65625 -35.3125 Z M 29.796875 -35.3125 C 29.796875 -29.40625 30.929688 -24.875 33.203125 -21.71875 C 35.484375 -18.570312 38.65625 -17 42.71875 -17 C 46.789062 -17 49.914062 -18.597656 52.09375 -21.796875 C 54.269531 -24.992188 55.359375 -29.5 55.359375 -35.3125 C 55.359375 -41.125 54.242188 -45.601562 52.015625 -48.75 C 49.796875 -51.894531 46.648438 -53.46875 42.578125 -53.46875 C 38.503906 -53.46875 35.351562 -51.894531 33.125 -48.75 C 30.90625 -45.601562 29.796875 -41.125 29.796875 -35.3125 Z M 29.796875 -35.3125 "/></g></g></g><g fill="#dc2ade" fill-opacity="1"><g transform="translate(172.204079, 286.870923)"><g><path d="M 104.800781 -80.820312 C 104.59375 -81.234375 104.59375 -82.269531 104.386719 -82.476562 C 103.558594 -84.957031 101.492188 -87.644531 99.21875 -89.710938 C 95.910156 -92.605469 92.605469 -93.429688 89.089844 -94.257812 C 87.023438 -94.464844 85.574219 -93.84375 83.921875 -93.84375 C 82.269531 -93.84375 80.410156 -94.257812 78.546875 -93.84375 C 75.859375 -93.429688 73.171875 -92.8125 70.488281 -91.984375 L 61.804688 -87.851562 C 59.945312 -87.230469 58.085938 -85.988281 56.015625 -84.542969 L 52.089844 -82.0625 C 51.261719 -81.441406 49.402344 -79.582031 48.367188 -79.167969 C 47.75 -78.753906 46.507812 -78.339844 45.476562 -77.722656 C 44.027344 -76.894531 42.375 -76.066406 41.753906 -75.035156 C 40.722656 -73.171875 39.894531 -72.554688 38.445312 -72.761719 C 38.445312 -69.453125 35.347656 -70.898438 36.792969 -69.039062 C 36.171875 -69.039062 35.140625 -69.039062 34.519531 -68.832031 C 33.898438 -68.417969 33.074219 -68.210938 32.660156 -67.59375 C 32.660156 -67.59375 32.867188 -67.59375 32.867188 -67.386719 C 31.417969 -65.320312 29.558594 -63.25 27.699219 -62.632812 C 27.285156 -62.011719 27.078125 -60.566406 26.25 -60.359375 C 25.011719 -59.945312 25.011719 -58.910156 25.011719 -58.085938 C 24.597656 -58.085938 24.183594 -57.464844 24.183594 -57.464844 L 19.84375 -51.054688 L 19.222656 -50.644531 C 19.84375 -50.230469 19.429688 -49.609375 18.808594 -49.609375 C 17.984375 -49.609375 17.777344 -49.195312 17.363281 -48.988281 L 15.296875 -45.269531 C 15.089844 -45.269531 14.882812 -45.0625 14.882812 -44.855469 C 14.054688 -44.027344 13.640625 -42.789062 13.230469 -41.339844 L 11.574219 -39.273438 C 12.195312 -37.207031 11.160156 -37 11.160156 -37.207031 L 10.957031 -35.347656 C 10.542969 -34.519531 10.335938 -33.074219 10.335938 -31.832031 C 10.75 -25.425781 14.675781 -20.050781 18.808594 -16.949219 C 22.324219 -14.054688 27.699219 -11.574219 30.59375 -10.335938 C 35.140625 -8.476562 44.855469 -7.027344 41.132812 -7.027344 L 41.132812 -6.613281 C 40.515625 -6.820312 40.101562 -5.582031 39.894531 -4.960938 C 38.652344 -4.753906 35.761719 -2.480469 35.140625 -1.859375 C 33.691406 -0.621094 31.832031 0.621094 29.765625 3.101562 C 29.765625 3.515625 28.730469 4.132812 28.730469 4.132812 C 27.90625 4.960938 27.078125 6.199219 26.042969 7.648438 L 26.25 7.648438 C 26.871094 7.648438 27.078125 7.234375 27.699219 6.820312 C 26.042969 9.09375 24.597656 11.160156 24.183594 13.640625 L 24.183594 16.328125 L 24.804688 18.601562 L 25.425781 19.84375 C 26.042969 21.082031 26.664062 22.117188 27.078125 22.53125 C 28.523438 24.597656 30.179688 26.25 32.660156 27.90625 C 33.28125 28.9375 34.105469 29.558594 35.140625 30.386719 C 37.207031 31.625 39.273438 32.453125 41.546875 33.484375 C 42.375 33.691406 43.820312 33.484375 44.855469 33.484375 C 45.476562 33.484375 46.507812 33.691406 47.128906 34.3125 C 47.542969 34.3125 47.957031 34.726562 47.957031 34.726562 C 49.195312 35.140625 49.609375 34.519531 50.847656 33.691406 C 52.089844 33.28125 53.949219 33.28125 56.015625 33.074219 C 57.671875 33.074219 62.21875 31.003906 64.078125 30.59375 C 66.351562 29.765625 74.207031 26.664062 76.480469 23.976562 C 77.308594 23.769531 78.546875 23.769531 79.789062 23.359375 L 79.789062 22.945312 C 81.648438 21.496094 94.671875 11.988281 96.324219 9.09375 L 99.425781 3.925781 L 96.53125 2.066406 L 95.496094 3.101562 C 92.191406 5.582031 82.476562 13.023438 77.929688 14.882812 C 75.652344 15.917969 72.96875 17.363281 71.105469 18.191406 C 67.179688 19.84375 64.078125 21.496094 60.566406 22.945312 C 54.570312 25.425781 48.988281 26.25 43.40625 25.632812 C 41.339844 25.632812 39.480469 25.632812 38.035156 25.011719 C 37 24.804688 35.761719 23.976562 35.554688 23.5625 C 34.105469 21.496094 33.898438 16.949219 34.726562 14.261719 C 35.347656 13.640625 35.347656 12.402344 35.761719 11.78125 C 37.414062 11.367188 38.445312 9.921875 38.445312 8.269531 C 38.445312 7.855469 38.652344 7.441406 38.859375 7.648438 C 39.894531 7.648438 39.6875 6.820312 40.515625 6.199219 L 41.132812 4.753906 C 43.613281 2.6875 45.476562 0 48.988281 -1.445312 C 52.089844 -2.6875 54.570312 -4.960938 57.671875 -5.375 C 60.769531 -6.820312 64.078125 -7.027344 67.386719 -7.648438 L 67.800781 -7.648438 C 67.59375 -7.855469 67.386719 -8.0625 66.765625 -8.0625 C 68.210938 -8.476562 69.453125 -8.886719 70.488281 -8.886719 C 71.726562 -9.09375 72.96875 -9.09375 74.207031 -9.09375 L 78.546875 -9.09375 C 80.613281 -9.09375 82.890625 -8.886719 84.75 -8.886719 C 85.164062 -9.714844 85.371094 -10.335938 85.371094 -10.75 C 85.371094 -14.054688 83.507812 -13.640625 82.269531 -14.675781 C 81.648438 -14.882812 82.0625 -14.46875 81.648438 -14.882812 C 81.648438 -15.089844 82.0625 -15.089844 82.0625 -15.296875 C 76.6875 -16.121094 71.105469 -15.089844 65.113281 -14.675781 L 63.664062 -14.46875 C 63.664062 -14.675781 63.664062 -14.675781 63.457031 -14.882812 L 57.464844 -14.054688 C 55.808594 -13.847656 53.742188 -13.847656 51.882812 -13.640625 C 48.164062 -13.023438 43.820312 -13.640625 39.480469 -14.054688 C 33.28125 -14.882812 28.523438 -16.121094 23.5625 -20.671875 C 20.257812 -24.183594 16.535156 -30.179688 19.429688 -35.140625 L 19.429688 -35.554688 C 20.878906 -38.445312 22.117188 -41.132812 23.359375 -44.234375 C 23.5625 -44.855469 23.5625 -45.269531 24.183594 -45.886719 C 24.804688 -46.507812 25.425781 -47.542969 26.042969 -48.164062 L 29.558594 -52.917969 C 31.003906 -53.949219 32.867188 -55.191406 33.074219 -57.671875 L 33.28125 -57.878906 C 34.519531 -58.703125 36.171875 -59.324219 36.585938 -60.359375 C 37.828125 -62.632812 39.480469 -63.871094 41.546875 -64.90625 C 42.582031 -65.527344 43.613281 -66.972656 44.648438 -67.800781 L 47.128906 -69.660156 L 49.402344 -71.3125 C 51.261719 -72.761719 52.710938 -74 54.363281 -75.859375 C 54.363281 -75.859375 53.949219 -76.066406 53.949219 -76.6875 C 56.636719 -75.859375 57.464844 -76.6875 56.84375 -78.339844 L 56.015625 -78.339844 L 56.015625 -78.753906 L 57.878906 -78.753906 C 58.910156 -78.753906 59.53125 -78.546875 60.566406 -78.753906 C 61.390625 -78.753906 62.632812 -79.167969 63.25 -79.582031 C 64.285156 -79.996094 65.113281 -80.820312 66.351562 -81.234375 C 65.730469 -82.0625 65.527344 -82.0625 65.527344 -82.0625 C 67.800781 -82.476562 69.453125 -83.714844 71.726562 -84.335938 C 71.726562 -84.542969 71.933594 -85.164062 72.347656 -85.164062 C 74 -85.78125 76.066406 -85.78125 77.722656 -86.402344 C 80.203125 -87.4375 82.890625 -85.574219 84.957031 -87.644531 L 85.371094 -88.46875 C 85.988281 -89.710938 88.882812 -89.296875 90.535156 -88.261719 C 98.804688 -84.335938 100.871094 -75.242188 97.152344 -67.59375 C 95.910156 -64.492188 95.085938 -63.046875 93.84375 -60.359375 L 92.398438 -58.496094 C 90.742188 -55.605469 88.261719 -53.328125 86.816406 -50.847656 C 85.574219 -49.195312 83.714844 -47.957031 82.476562 -46.507812 C 82.0625 -45.886719 81.648438 -45.0625 82.0625 -44.855469 C 82.269531 -42.996094 82.476562 -42.789062 84.75 -40.722656 C 85.371094 -39.6875 87.023438 -39.273438 87.851562 -39.894531 C 88.46875 -40.722656 89.710938 -41.339844 90.535156 -42.582031 C 91.570312 -43.40625 92.191406 -44.234375 93.015625 -45.0625 C 94.050781 -46.921875 95.496094 -48.78125 96.53125 -50.230469 C 97.976562 -52.296875 99.425781 -54.363281 100.457031 -56.222656 C 102.527344 -59.117188 104.386719 -64.285156 105.417969 -67.800781 L 106.039062 -71.519531 C 106.246094 -74.828125 105.625 -77.722656 104.800781 -80.820312 Z M 104.800781 -80.820312 "/></g></g></g><g fill="#dc2ade" fill-opacity="1"><g transform="translate(280.505772, 286.870923)"><g><path d="M 8.476562 16.742188 C 10.542969 15.503906 13.023438 15.089844 15.503906 13.640625 C 16.742188 12.402344 18.398438 10.957031 19.429688 9.09375 C 21.496094 7.855469 22.945312 5.789062 24.390625 4.132812 C 25.425781 2.894531 26.871094 1.652344 27.90625 0.207031 C 29.144531 -1.859375 30.59375 -3.515625 31.003906 -6.199219 C 31.003906 -6.199219 31.210938 -6.40625 31.625 -6.40625 C 33.28125 -7.234375 33.691406 -8.886719 34.3125 -10.335938 C 34.933594 -11.367188 35.140625 -12.402344 37.621094 -18.398438 L 40.308594 -25.425781 C 40.925781 -27.492188 40.722656 -29.765625 39.6875 -31.210938 C 39.273438 -31.417969 39.273438 -31.832031 39.066406 -32.246094 C 38.445312 -32.660156 38.242188 -33.691406 37.828125 -33.691406 C 37.207031 -33.691406 36.585938 -32.660156 36.171875 -31.832031 C 35.140625 -29.558594 34.105469 -27.492188 33.484375 -25.839844 C 31.625 -22.738281 29.765625 -19.84375 28.113281 -16.742188 C 26.664062 -13.4375 24.597656 -10.335938 21.910156 -7.441406 C 20.878906 -5.996094 19.636719 -4.132812 18.398438 -3.101562 C 17.15625 -1.238281 15.503906 0.621094 13.640625 2.066406 C 11.988281 3.308594 10.335938 5.167969 8.269531 5.167969 C 8.886719 2.273438 9.09375 -0.414062 9.507812 -3.308594 C 10.957031 -7.648438 11.78125 -11.574219 12.816406 -15.917969 C 13.4375 -20.050781 14.675781 -24.183594 14.261719 -28.320312 C 13.847656 -28.730469 13.4375 -29.144531 13.4375 -29.558594 C 13.023438 -29.972656 13.230469 -30.59375 13.023438 -31.003906 C 11.574219 -31.417969 9.714844 -32.867188 8.679688 -32.660156 L 6.820312 -25.011719 C 6.199219 -23.152344 5.996094 -21.703125 5.789062 -20.050781 C 5.167969 -18.191406 4.546875 -15.710938 4.546875 -13.640625 C 3.925781 -11.988281 2.894531 -9.921875 2.894531 -7.648438 C 2.6875 -5.996094 1.859375 -4.753906 1.445312 -2.6875 C 1.652344 0.414062 1.238281 3.515625 1.238281 6.820312 C 1.238281 7.234375 1.445312 8.269531 1.652344 9.507812 C 2.480469 10.957031 2.273438 12.816406 3.71875 12.816406 C 3.925781 12.816406 5.167969 15.089844 5.167969 15.296875 Z M 8.476562 16.742188 "/></g></g></g><g fill="#dc2ade" fill-opacity="1"><g transform="translate(327.629416, 286.870923)"><g><path d="M 54.363281 -20.257812 C 54.984375 -20.671875 55.398438 -21.289062 56.015625 -21.703125 C 56.015625 -21.910156 55.808594 -21.910156 55.808594 -21.910156 L 55.398438 -23.359375 L 48.367188 -18.191406 C 47.957031 -17.777344 46.714844 -17.15625 45.886719 -16.742188 C 43.820312 -15.503906 39.894531 -13.230469 38.035156 -11.988281 L 37.414062 -11.574219 L 30.59375 -7.648438 C 29.558594 -7.027344 28.523438 -7.027344 27.492188 -6.613281 C 25.839844 -5.996094 24.183594 -5.167969 22.738281 -4.546875 C 20.878906 -3.925781 19.015625 -3.101562 17.15625 -2.894531 C 14.46875 -2.480469 11.78125 -2.6875 9.09375 -2.480469 C 7.441406 -3.101562 7.027344 -3.515625 6.199219 -5.996094 C 7.648438 -6.820312 8.269531 -7.027344 9.921875 -7.855469 C 10.335938 -8.269531 10.75 -8.886719 11.367188 -9.09375 C 12.609375 -9.921875 14.261719 -10.542969 15.710938 -11.367188 C 15.917969 -11.574219 15.917969 -12.195312 16.121094 -12.402344 L 19.015625 -14.46875 C 19.84375 -14.882812 21.289062 -15.089844 21.496094 -16.535156 C 21.703125 -17.15625 22.945312 -17.363281 23.5625 -17.984375 C 25.425781 -19.84375 27.285156 -21.703125 29.144531 -23.769531 C 29.765625 -24.390625 30.386719 -25.425781 30.800781 -26.457031 C 31.417969 -28.113281 30.386719 -31.625 28.730469 -32.660156 C 27.285156 -33.898438 25.632812 -35.140625 23.769531 -35.964844 C 22.324219 -36.792969 20.464844 -38.242188 18.398438 -37.414062 C 17.570312 -37.207031 16.949219 -37 16.328125 -37 C 13.640625 -36.792969 11.367188 -35.554688 9.507812 -33.691406 C 7.648438 -31.625 5.789062 -29.558594 3.925781 -27.285156 C 2.894531 -26.042969 2.066406 -24.804688 1.238281 -23.5625 C -0.828125 -19.636719 -1.859375 -15.710938 -2.066406 -11.574219 C -2.066406 -10.128906 -2.273438 -8.679688 -1.238281 -6.199219 C -0.828125 -4.132812 -0.828125 -4.132812 -0.414062 -3.71875 C 0.828125 -1.859375 1.652344 -0.621094 3.101562 0.414062 C 3.308594 0.621094 3.925781 0.828125 4.132812 1.238281 C 6.199219 2.894531 7.027344 3.101562 8.886719 3.71875 C 10.75 4.339844 13.023438 4.753906 15.089844 4.960938 C 16.742188 5.167969 18.191406 4.753906 19.84375 4.339844 C 20.878906 4.132812 22.117188 3.925781 22.945312 3.515625 C 23.5625 3.101562 23.976562 2.894531 24.804688 2.894531 C 26.25 2.6875 27.699219 2.6875 28.9375 2.066406 C 31.003906 1.238281 32.660156 -0.207031 34.519531 -1.238281 C 35.964844 -2.273438 37.207031 -3.101562 38.859375 -3.925781 L 42.789062 -7.027344 C 43.613281 -7.648438 44.648438 -8.476562 45.476562 -9.300781 C 45.683594 -9.507812 46.507812 -10.335938 46.714844 -10.957031 L 46.714844 -11.160156 C 46.921875 -12.609375 47.75 -13.023438 48.574219 -13.640625 C 47.957031 -14.261719 48.367188 -14.675781 49.195312 -15.089844 L 49.816406 -15.917969 C 50.847656 -16.535156 50.847656 -17.15625 51.261719 -17.570312 Z M 7.441406 -18.601562 C 8.679688 -21.082031 10.128906 -23.5625 11.78125 -25.839844 C 13.230469 -27.699219 15.089844 -28.730469 16.949219 -30.179688 C 18.601562 -31.417969 20.464844 -31.417969 22.324219 -32.246094 C 23.152344 -32.660156 24.183594 -30.800781 23.5625 -29.765625 C 22.738281 -28.320312 21.910156 -27.078125 20.671875 -26.042969 L 15.089844 -21.082031 L 9.507812 -16.535156 C 8.679688 -15.917969 7.648438 -15.296875 5.996094 -14.261719 C 6.40625 -15.917969 6.820312 -17.363281 7.441406 -18.601562 Z M 7.441406 -18.601562 "/></g></g></g><g fill="#dc2ade" fill-opacity="1"><g transform="translate(379.713426, 286.870923)"><g><path d="M 6.199219 9.507812 C 7.855469 9.921875 8.679688 9.714844 9.507812 8.0625 C 9.714844 7.855469 9.714844 7.648438 10.128906 7.441406 L 10.75 5.996094 C 11.78125 5.996094 12.609375 5.375 13.4375 4.339844 C 14.46875 2.066406 18.398438 -5.582031 18.601562 -5.582031 L 19.636719 -7.027344 C 19.222656 -7.027344 20.464844 -8.0625 20.671875 -8.679688 C 21.289062 -9.714844 22.738281 -9.921875 22.53125 -11.574219 C 23.976562 -12.195312 25.011719 -13.230469 25.425781 -14.882812 C 26.871094 -15.089844 27.699219 -15.710938 28.320312 -17.984375 C 28.523438 -17.363281 28.9375 -17.15625 29.351562 -16.742188 C 29.351562 -15.503906 29.144531 -14.054688 29.144531 -13.023438 C 28.730469 -8.679688 29.558594 -4.753906 30.59375 -1.238281 C 31.417969 1.445312 33.074219 3.308594 34.933594 4.753906 C 35.964844 5.996094 36.585938 5.996094 38.035156 6.613281 L 38.242188 6.613281 C 41.339844 5.996094 44.855469 5.996094 47.75 3.925781 C 49.609375 2.6875 51.46875 1.238281 52.710938 -0.207031 C 54.15625 -1.652344 55.808594 -2.894531 56.636719 -4.546875 C 56.636719 -4.753906 57.257812 -4.753906 57.464844 -4.960938 C 57.257812 -5.167969 57.257812 -5.582031 57.257812 -5.582031 C 58.289062 -6.199219 58.289062 -6.820312 58.496094 -7.234375 L 62.011719 -11.367188 C 62.839844 -11.988281 63.664062 -13.023438 64.078125 -13.847656 C 64.492188 -14.675781 64.492188 -15.503906 64.90625 -16.535156 L 66.765625 -19.429688 C 67.800781 -20.671875 66.972656 -21.496094 65.730469 -21.496094 L 46.507812 -3.101562 C 45.476562 -2.273438 44.234375 -1.652344 42.996094 -1.238281 C 39.480469 0.621094 38.859375 0.828125 38.652344 1.035156 L 38.035156 1.035156 C 37.828125 0.828125 37.207031 0.207031 37.207031 -0.207031 L 36.585938 -2.273438 C 36.585938 -3.71875 36.585938 -5.375 36.378906 -6.820312 C 36.585938 -7.441406 36.378906 -8.0625 36.378906 -8.476562 C 36.585938 -10.128906 36.792969 -11.78125 36.792969 -13.4375 C 36.585938 -15.296875 36.171875 -17.15625 35.554688 -19.015625 C 35.554688 -19.636719 35.761719 -20.257812 35.554688 -20.257812 C 34.726562 -20.671875 34.933594 -21.703125 34.726562 -22.738281 C 31.417969 -24.390625 31.003906 -24.804688 30.386719 -24.804688 C 29.765625 -25.011719 29.351562 -25.21875 27.699219 -25.21875 C 25.632812 -25.011719 25.425781 -25.011719 24.390625 -24.390625 C 22.738281 -23.152344 21.289062 -21.703125 20.050781 -20.257812 C 17.570312 -17.777344 15.296875 -14.882812 13.230469 -11.78125 C 13.230469 -11.574219 13.230469 -11.78125 13.023438 -11.574219 C 13.230469 -11.988281 13.230469 -12.195312 13.230469 -12.402344 C 13.640625 -13.847656 14.261719 -15.089844 14.675781 -16.535156 C 15.089844 -17.984375 15.089844 -19.015625 15.296875 -20.464844 C 15.503906 -22.117188 15.710938 -23.5625 16.121094 -25.21875 C 16.121094 -25.425781 16.121094 -25.425781 15.917969 -25.632812 C 14.46875 -27.699219 12.609375 -29.558594 9.921875 -29.765625 C 8.679688 -29.972656 8.269531 -29.558594 8.0625 -28.113281 C 7.855469 -26.871094 7.648438 -25.632812 8.269531 -25.011719 C 8.476562 -25.011719 8.476562 -24.597656 8.476562 -24.390625 C 8.0625 -21.910156 7.855469 -19.636719 7.234375 -17.15625 C 6.40625 -13.4375 5.167969 -9.714844 4.132812 -6.199219 C 3.308594 -2.480469 2.894531 0.828125 2.273438 4.339844 C 1.859375 5.996094 4.960938 9.09375 6.199219 9.507812 Z M 6.199219 9.507812 "/></g></g></g><g fill="#dc2ade" fill-opacity="1"><g transform="translate(433.244217, 286.870923)"><g><path d="M 43.40625 -68.210938 C 44.648438 -68.417969 47.335938 -68.832031 48.164062 -68.210938 C 49.609375 -68.832031 51.675781 -68.832031 52.917969 -68.832031 L 53.328125 -69.039062 C 54.15625 -70.28125 57.257812 -70.488281 56.636719 -72.554688 C 56.015625 -72.96875 54.984375 -72.140625 54.570312 -71.933594 C 50.230469 -71.105469 48.988281 -71.3125 39.066406 -71.726562 C 38.242188 -71.519531 36.585938 -72.140625 33.691406 -72.347656 C 34.105469 -74.621094 34.726562 -75.652344 36.171875 -79.789062 C 37.207031 -82.476562 38.859375 -85.164062 39.480469 -87.644531 C 41.546875 -91.15625 43.203125 -94.878906 44.855469 -98.804688 C 45.476562 -100.253906 46.09375 -101.285156 44.441406 -102.320312 C 44.027344 -102.9375 43.203125 -103.351562 42.996094 -103.972656 C 42.789062 -105.625 40.925781 -106.039062 39.273438 -107.074219 C 38.859375 -107.28125 38.445312 -107.28125 38.242188 -107.695312 C 37.414062 -107.898438 36.792969 -107.695312 36.378906 -106.453125 C 35.964844 -105.007812 35.140625 -102.9375 34.726562 -101.492188 C 34.105469 -100.457031 33.484375 -100.046875 33.484375 -99.21875 C 32.246094 -96.738281 31.832031 -94.464844 30.800781 -92.191406 C 30.179688 -89.710938 28.9375 -87.4375 28.320312 -85.371094 C 27.492188 -83.300781 26.664062 -81.441406 26.042969 -79.375 C 24.804688 -77.308594 24.597656 -75.242188 23.359375 -73.171875 C 22.117188 -73.171875 20.671875 -73.171875 18.808594 -72.96875 L 14.882812 -73.378906 C 13.4375 -74 11.988281 -73.585938 10.75 -72.96875 C 10.335938 -72.761719 9.714844 -72.96875 9.507812 -72.96875 C 9.507812 -72.96875 8.679688 -73.171875 7.648438 -71.933594 C 6.613281 -71.519531 6.199219 -70.28125 6.199219 -69.660156 C 6.40625 -67.800781 8.679688 -67.386719 11.160156 -66.765625 C 15.089844 -66.351562 17.984375 -66.144531 20.671875 -66.144531 L 18.601562 -59.738281 L 11.988281 -39.066406 C 12.195312 -38.859375 12.195312 -38.445312 12.402344 -38.242188 L 11.988281 -38.242188 C 11.574219 -37.207031 10.957031 -36.585938 10.957031 -35.761719 C 10.128906 -33.074219 10.128906 -30.800781 9.300781 -28.523438 L 7.855469 -22.738281 C 7.441406 -20.257812 6.613281 -17.777344 6.820312 -15.296875 C 6.40625 -10.957031 5.789062 -6.820312 6.613281 -2.6875 C 7.441406 1.445312 8.269531 5.582031 10.542969 8.886719 C 10.957031 9.300781 11.367188 9.714844 11.78125 10.335938 C 13.4375 12.195312 14.261719 13.4375 16.121094 14.054688 C 19.015625 15.917969 19.636719 15.710938 22.738281 15.503906 L 22.324219 15.503906 C 23.5625 15.503906 23.976562 15.296875 24.390625 14.675781 C 25.425781 13.023438 27.285156 11.78125 26.664062 9.714844 C 26.664062 9.714844 24.183594 10.957031 22.53125 10.75 C 20.671875 10.957031 20.464844 10.75 18.601562 9.714844 L 17.15625 8.0625 C 16.742188 7.648438 15.917969 6.820312 15.917969 5.375 C 15.503906 3.925781 15.089844 2.480469 15.296875 1.035156 C 15.296875 0.207031 15.296875 -0.414062 14.46875 -0.621094 C 15.296875 -1.035156 14.675781 -1.238281 14.261719 -1.652344 C 15.296875 -1.859375 15.089844 -5.582031 14.261719 -6.613281 C 14.675781 -7.234375 15.089844 -8.0625 15.296875 -8.679688 C 14.882812 -8.886719 14.675781 -9.09375 14.882812 -9.09375 C 15.089844 -9.300781 15.296875 -9.714844 15.296875 -10.128906 C 15.296875 -11.78125 15.503906 -13.230469 16.121094 -15.089844 C 15.917969 -15.710938 16.121094 -16.742188 16.328125 -17.570312 C 16.328125 -18.191406 16.949219 -19.015625 16.949219 -19.429688 C 16.949219 -20.464844 17.570312 -21.703125 16.949219 -22.738281 C 17.363281 -23.359375 17.984375 -23.976562 18.191406 -24.597656 C 18.398438 -26.871094 19.222656 -29.144531 19.84375 -31.417969 C 19.84375 -32.660156 20.464844 -33.898438 21.082031 -35.140625 C 21.289062 -37 22.324219 -39.066406 22.738281 -41.132812 C 22.945312 -41.960938 23.359375 -42.789062 23.769531 -43.820312 C 24.183594 -45.0625 23.976562 -46.300781 24.597656 -47.75 C 24.597656 -48.164062 24.390625 -48.574219 24.597656 -48.574219 C 25.839844 -48.988281 25.632812 -49.816406 25.425781 -50.230469 C 25.21875 -50.644531 25.632812 -51.054688 25.632812 -51.46875 C 26.457031 -52.296875 27.078125 -53.742188 26.871094 -54.570312 C 27.285156 -55.191406 27.699219 -55.605469 27.492188 -56.015625 C 27.078125 -56.84375 27.90625 -58.496094 28.730469 -58.910156 L 31.003906 -65.9375 L 33.28125 -65.9375 C 35.140625 -66.144531 38.242188 -65.9375 40.515625 -65.9375 C 43.203125 -66.144531 45.0625 -66.144531 46.09375 -66.144531 C 47.957031 -66.144531 49.816406 -66.351562 50.4375 -66.765625 L 53.535156 -67.179688 C 53.949219 -67.386719 54.15625 -67.59375 53.535156 -68.007812 C 49.402344 -67.59375 47.75 -67.59375 39.6875 -67.386719 L 39.894531 -67.800781 Z M 43.40625 -68.210938 "/></g></g></g><g fill="#dc2ade" fill-opacity="1"><g transform="translate(476.647558, 286.870923)"><g><path d="M 36.171875 -40.722656 C 35.554688 -41.132812 34.519531 -42.167969 30.386719 -42.167969 C 27.90625 -42.167969 26.871094 -41.546875 25.011719 -41.132812 L 23.152344 -40.101562 C 21.703125 -39.480469 21.703125 -39.480469 20.671875 -38.652344 C 20.050781 -37.414062 19.015625 -36.171875 18.191406 -35.140625 C 17.15625 -33.898438 17.570312 -32.039062 17.363281 -30.59375 C 16.535156 -29.765625 16.742188 -27.285156 16.742188 -26.457031 L 17.570312 -24.804688 C 17.363281 -23.769531 17.777344 -22.945312 18.191406 -22.117188 C 19.222656 -20.257812 19.429688 -19.015625 20.257812 -16.535156 L 20.464844 -15.710938 L 20.878906 -14.675781 L 21.703125 -13.4375 L 22.945312 -10.957031 L 23.359375 -10.335938 L 26.25 -2.894531 C 27.492188 0.207031 27.90625 1.652344 27.699219 4.339844 C 27.90625 5.996094 27.90625 7.855469 27.492188 9.714844 C 27.285156 10.957031 26.871094 12.402344 25.839844 13.847656 C 24.183594 16.121094 22.945312 16.742188 19.015625 17.363281 C 17.777344 17.570312 16.121094 17.15625 15.089844 16.535156 C 13.4375 14.882812 12.195312 14.054688 12.195312 12.195312 C 12.402344 11.78125 11.78125 11.160156 11.367188 10.75 C 10.542969 9.300781 10.335938 7.441406 10.75 3.925781 L 11.988281 1.035156 L 14.46875 -1.652344 L 14.261719 -3.515625 L 13.847656 -3.925781 L 13.847656 -4.132812 C 11.988281 -3.308594 11.78125 -3.515625 10.128906 -2.273438 C 8.269531 -1.035156 6.199219 0.828125 4.753906 2.6875 L 4.546875 6.40625 C 4.546875 6.40625 4.132812 6.40625 4.132812 6.820312 L 4.132812 7.027344 C 4.132812 9.09375 4.753906 11.367188 5.789062 12.816406 C 6.613281 13.847656 7.441406 15.503906 8.886719 16.742188 C 9.714844 17.984375 11.367188 19.636719 13.230469 20.878906 C 14.054688 22.117188 15.710938 22.117188 16.121094 22.53125 C 17.15625 22.945312 18.808594 22.945312 20.464844 23.359375 C 22.324219 23.5625 23.769531 23.769531 25.011719 23.359375 L 27.078125 22.738281 C 26.871094 22.324219 26.664062 22.324219 26.664062 22.117188 C 27.285156 22.117188 27.90625 22.117188 28.523438 21.910156 C 29.765625 21.496094 31.832031 19.636719 33.28125 17.570312 C 34.726562 16.328125 35.140625 14.261719 35.140625 14.054688 C 35.347656 12.816406 36.792969 11.160156 35.964844 10.335938 C 36.378906 9.300781 36.171875 8.886719 35.964844 8.269531 C 36.378906 5.167969 36.585938 3.71875 35.964844 0.621094 C 35.964844 0.207031 35.347656 0 35.347656 -0.414062 C 35.761719 -1.238281 35.347656 -1.445312 34.933594 -1.859375 C 34.726562 -2.480469 34.3125 -3.101562 34.3125 -4.132812 L 33.691406 -6.199219 C 33.074219 -8.0625 32.660156 -8.269531 32.246094 -10.128906 C 32.246094 -10.75 31.003906 -11.574219 31.210938 -12.195312 C 31.003906 -12.609375 30.386719 -12.816406 30.59375 -13.230469 L 29.558594 -14.054688 L 28.9375 -15.917969 L 28.523438 -16.949219 L 27.699219 -18.398438 L 27.699219 -19.636719 C 27.285156 -19.84375 27.285156 -20.050781 27.285156 -20.671875 C 27.285156 -21.289062 26.664062 -21.910156 26.664062 -22.738281 C 26.042969 -24.390625 25.425781 -25.632812 25.632812 -27.699219 C 25.011719 -29.351562 25.011719 -31.003906 25.632812 -32.246094 C 25.839844 -33.28125 26.664062 -33.898438 27.285156 -34.3125 C 27.699219 -34.933594 28.320312 -35.347656 28.730469 -35.554688 C 29.558594 -36.171875 29.558594 -35.761719 31.417969 -36.378906 L 33.691406 -36.378906 C 36.171875 -35.761719 38.242188 -35.140625 38.859375 -34.105469 L 39.480469 -34.105469 L 39.480469 -34.3125 L 40.515625 -34.3125 L 40.722656 -33.898438 L 41.132812 -33.691406 C 41.132812 -34.519531 41.339844 -37.414062 36.171875 -40.722656 Z M 36.171875 -40.722656 "/></g></g></g><g clip-path="url(#6720bd545a)"><path fill="#dc2ade" d="M 240.449219 70.3125 C 229.484375 70.3125 220.503906 79.304688 220.503906 90.289062 L 220.503906 160.21875 L 225.492188 160.21875 C 242.066406 160.21875 255.410156 173.585938 255.410156 190.1875 C 255.410156 206.792969 242.066406 220.15625 225.492188 220.15625 L 220.503906 220.15625 L 220.503906 290.085938 C 220.503906 301.070312 229.484375 310.066406 240.449219 310.066406 L 549.609375 310.066406 C 560.574219 310.066406 569.554688 301.070312 569.554688 290.085938 L 569.554688 220.15625 L 564.566406 220.15625 C 547.992188 220.15625 534.648438 206.792969 534.648438 190.1875 C 534.648438 173.585938 547.992188 160.21875 564.566406 160.21875 L 569.554688 160.21875 L 569.554688 90.289062 C 569.554688 79.304688 560.574219 70.3125 549.609375 70.3125 Z M 240.449219 80.300781 L 315.246094 80.300781 C 315.246094 83.050781 317.488281 85.296875 320.234375 85.296875 C 322.980469 85.296875 325.21875 83.050781 325.21875 80.300781 L 549.609375 80.300781 C 555.179688 80.300781 559.582031 84.710938 559.582031 90.289062 L 559.582031 151.242188 C 540.0625 153.820312 524.675781 169.957031 524.675781 190.1875 C 524.675781 210.421875 540.0625 226.558594 559.582031 229.132812 L 559.582031 290.085938 C 559.582031 295.664062 555.179688 300.074219 549.609375 300.074219 L 325.21875 300.074219 C 325.21875 297.324219 322.980469 295.082031 320.234375 295.082031 C 317.488281 295.082031 315.246094 297.324219 315.246094 300.074219 L 240.449219 300.074219 C 234.878906 300.074219 230.476562 295.664062 230.476562 290.085938 L 230.476562 229.132812 C 249.996094 226.558594 265.382812 210.421875 265.382812 190.1875 C 265.382812 169.957031 249.996094 153.820312 230.476562 151.242188 L 230.476562 90.289062 C 230.476562 84.710938 234.878906 80.300781 240.449219 80.300781 Z M 320.234375 95.285156 C 317.488281 95.285156 315.246094 97.53125 315.246094 100.28125 C 315.246094 103.03125 317.488281 105.277344 320.234375 105.277344 C 322.980469 105.277344 325.21875 103.03125 325.21875 100.28125 C 325.21875 97.53125 322.980469 95.285156 320.234375 95.285156 Z M 320.234375 115.265625 C 317.488281 115.265625 315.246094 117.507812 315.246094 120.261719 C 315.246094 123.011719 317.488281 125.253906 320.234375 125.253906 C 322.980469 125.253906 325.21875 123.011719 325.21875 120.261719 C 325.21875 117.507812 322.980469 115.265625 320.234375 115.265625 Z M 320.234375 135.246094 C 317.488281 135.246094 315.246094 137.488281 315.246094 140.238281 C 315.246094 142.992188 317.488281 145.234375 320.234375 145.234375 C 322.980469 145.234375 325.21875 142.992188 325.21875 140.238281 C 325.21875 137.488281 322.980469 135.246094 320.234375 135.246094 Z M 320.234375 155.222656 C 317.488281 155.222656 315.246094 157.46875 315.246094 160.21875 C 315.246094 162.96875 317.488281 165.214844 320.234375 165.214844 C 322.980469 165.214844 325.21875 162.96875 325.21875 160.21875 C 325.21875 157.46875 322.980469 155.222656 320.234375 155.222656 Z M 320.234375 175.203125 C 317.488281 175.203125 315.246094 177.449219 315.246094 180.199219 C 315.246094 182.949219 317.488281 185.195312 320.234375 185.195312 C 322.980469 185.195312 325.21875 182.949219 325.21875 180.199219 C 325.21875 177.449219 322.980469 175.203125 320.234375 175.203125 Z M 320.234375 195.183594 C 317.488281 195.183594 315.246094 197.425781 315.246094 200.179688 C 315.246094 202.929688 317.488281 205.171875 320.234375 205.171875 C 322.980469 205.171875 325.21875 202.929688 325.21875 200.179688 C 325.21875 197.425781 322.980469 195.183594 320.234375 195.183594 Z M 320.234375 215.164062 C 317.488281 215.164062 315.246094 217.40625 315.246094 220.15625 C 315.246094 222.910156 317.488281 225.152344 320.234375 225.152344 C 322.980469 225.152344 325.21875 222.910156 325.21875 220.15625 C 325.21875 217.40625 322.980469 215.164062 320.234375 215.164062 Z M 320.234375 235.140625 C 317.488281 235.140625 315.246094 237.386719 315.246094 240.136719 C 315.246094 242.886719 317.488281 245.132812 320.234375 245.132812 C 322.980469 245.132812 325.21875 242.886719 325.21875 240.136719 C 325.21875 237.386719 322.980469 235.140625 320.234375 235.140625 Z M 320.234375 255.121094 C 317.488281 255.121094 315.246094 257.367188 315.246094 260.117188 C 315.246094 262.867188 317.488281 265.113281 320.234375 265.113281 C 322.980469 265.113281 325.21875 262.867188 325.21875 260.117188 C 325.21875 257.367188 322.980469 255.121094 320.234375 255.121094 Z M 320.234375 275.101562 C 317.488281 275.101562 315.246094 277.34375 315.246094 280.097656 C 315.246094 282.847656 317.488281 285.089844 320.234375 285.089844 C 322.980469 285.089844 325.21875 282.847656 325.21875 280.097656 C 325.21875 277.34375 322.980469 275.101562 320.234375 275.101562 Z M 320.234375 275.101562 " fill-opacity="1" fill-rule="nonzero"/></g></svg>