<svg width="39" height="39" viewBox="0 0 39 39" fill="none" xmlns="http://www.w3.org/2000/svg">
<path fill-rule="evenodd" clip-rule="evenodd" d="M36.075 27.3C36.075 28.0758 35.7668 28.8197 35.2183 29.3683C34.6698 29.9168 33.9258 30.225 33.15 30.225L5.85001 30.225C5.07425 30.225 4.33027 29.9168 3.78173 29.3683C3.23318 28.8197 2.92501 28.0758 2.92501 27.3V22.152C2.92501 21.6275 3.23896 21.1575 3.72061 20.9567C4.00779 20.8367 4.25306 20.6345 4.42558 20.3755C4.5981 20.1165 4.69015 19.8122 4.69015 19.501C4.69015 19.1898 4.5981 18.8855 4.42558 18.6265C4.25306 18.3675 4.00779 18.1653 3.72061 18.0453C3.48485 17.9468 3.2835 17.7807 3.14193 17.568C3.00036 17.3553 2.92488 17.1055 2.92501 16.85V11.7C2.92501 10.9242 3.23318 10.1803 3.78173 9.63172C4.33027 9.08317 5.07425 8.77501 5.85001 8.77501L33.15 8.77501C33.9258 8.77501 34.6698 9.08317 35.2183 9.63172C35.7668 10.1803 36.075 10.9242 36.075 11.7V16.848C36.075 17.3726 35.7611 17.8425 35.2794 18.0453C34.9922 18.1653 34.747 18.3675 34.5744 18.6265C34.4019 18.8855 34.3099 19.1898 34.3099 19.501C34.3099 19.8122 34.4019 20.1165 34.5744 20.3755C34.747 20.6345 34.9922 20.8367 35.2794 20.9567C35.5149 21.055 35.716 21.2208 35.8576 21.4331C35.9991 21.6455 36.0748 21.8949 36.075 22.1501V27.3ZM33.15 28.275C33.4086 28.275 33.6566 28.1723 33.8394 27.9894C34.0223 27.8066 34.125 27.5586 34.125 27.3V22.5596C31.7694 21.2277 31.7694 17.7723 34.125 16.4405V11.7C34.125 11.4414 34.0223 11.1934 33.8394 11.0106C33.6566 10.8277 33.4086 10.725 33.15 10.725L5.85001 10.725C5.59143 10.725 5.34343 10.8277 5.16058 11.0106C4.97773 11.1934 4.87501 11.4414 4.87501 11.7L4.87501 16.4405C7.23061 17.7723 7.23061 21.2277 4.87501 22.5596L4.87501 27.3C4.87501 27.5586 4.97773 27.8066 5.16058 27.9894C5.34343 28.1723 5.59143 28.275 5.85001 28.275L33.15 28.275Z" fill="#DC2ADE"/>
<path fill-rule="evenodd" clip-rule="evenodd" d="M14.625 13.1625C14.2371 13.1625 13.8652 13.0084 13.5909 12.7342C13.3166 12.4599 13.1625 12.0879 13.1625 11.7L13.1625 10.725C13.1625 10.3371 13.3166 9.96515 13.5909 9.69087C13.8652 9.4166 14.2371 9.26252 14.625 9.26252C15.0129 9.26252 15.3849 9.4166 15.6592 9.69087C15.9334 9.96515 16.0875 10.3371 16.0875 10.725V11.7C16.0875 12.0879 15.9334 12.4599 15.6592 12.7342C15.3849 13.0084 15.0129 13.1625 14.625 13.1625ZM14.625 29.7375C14.2371 29.7375 13.8652 29.5834 13.5909 29.3092C13.3166 29.0349 13.1625 28.6629 13.1625 28.275V27.3C13.1625 26.9121 13.3166 26.5401 13.5909 26.2659C13.8652 25.9916 14.2371 25.8375 14.625 25.8375C15.0129 25.8375 15.3849 25.9916 15.6592 26.2659C15.9334 26.5401 16.0875 26.9121 16.0875 27.3V28.275C16.0875 28.6629 15.9334 29.0349 15.6592 29.3092C15.3849 29.5834 15.0129 29.7375 14.625 29.7375ZM14.625 24.375C14.2371 24.375 13.8652 24.2209 13.5909 23.9467C13.3166 23.6724 13.1625 23.3004 13.1625 22.9125L13.1625 21.9375C13.1625 21.5496 13.3166 21.1776 13.5909 20.9034C13.8652 20.6291 14.2371 20.475 14.625 20.475C15.0129 20.475 15.3849 20.6291 15.6592 20.9034C15.9334 21.1776 16.0875 21.5496 16.0875 21.9375V22.9125C16.0875 23.3004 15.9334 23.6724 15.6592 23.9467C15.3849 24.2209 15.0129 24.375 14.625 24.375ZM14.625 18.525C14.2371 18.525 13.8652 18.3709 13.5909 18.0967C13.3166 17.8224 13.1625 17.4504 13.1625 17.0625V16.0875C13.1625 15.6996 13.3166 15.3276 13.5909 15.0534C13.8652 14.7791 14.2371 14.625 14.625 14.625C15.0129 14.625 15.3849 14.7791 15.6592 15.0534C15.9334 15.3276 16.0875 15.6996 16.0875 16.0875V17.0625C16.0875 17.4504 15.9334 17.8224 15.6592 18.0967C15.3849 18.3709 15.0129 18.525 14.625 18.525Z" fill="#DC2ADE"/>
</svg>
