<svg width="27" height="21" viewBox="0 0 27 21" fill="none" xmlns="http://www.w3.org/2000/svg">
<path d="M15.75 12.4705V14.2992C14.7318 14.0193 13.6421 13.9334 12.5723 14.0488C11.5026 14.1643 10.4841 14.4777 9.60236 14.9627C8.72062 15.4477 8.00139 16.0902 7.50506 16.8362C7.00873 17.5823 6.74979 18.41 6.75 19.25H4.5C4.49948 18.1815 4.81349 17.127 5.41797 16.1674C6.02244 15.2079 6.90134 14.3687 7.9873 13.7142C9.07326 13.0597 10.3375 12.6072 11.683 12.3915C13.0286 12.1758 14.4198 12.2034 15.75 12.4705ZM13.5 11.375C9.77063 11.375 6.75 9.02563 6.75 6.125C6.75 3.22437 9.77063 0.875 13.5 0.875C17.2294 0.875 20.25 3.22437 20.25 6.125C20.25 9.02563 17.2294 11.375 13.5 11.375ZM13.5 9.625C15.9863 9.625 18 8.05875 18 6.125C18 4.19125 15.9863 2.625 13.5 2.625C11.0138 2.625 9 4.19125 9 6.125C9 8.05875 11.0138 9.625 13.5 9.625ZM20.25 14.875V12.25H22.5V14.875H25.875V16.625H22.5V19.25H20.25V16.625H16.875V14.875H20.25Z" fill="#4D089A"/>
</svg>
