<svg xmlns="http://www.w3.org/2000/svg" xmlns:xlink="http://www.w3.org/1999/xlink" width="800" zoomAndPan="magnify" viewBox="0 0 600 599.999999" height="800" preserveAspectRatio="xMidYMid meet" version="1.0"><defs><clipPath id="1277e50028"><path d="M 95 159.566406 L 505.238281 159.566406 L 505.238281 440.066406 L 95 440.066406 Z M 95 159.566406 " clip-rule="nonzero"/></clipPath></defs><g clip-path="url(#1277e50028)"><path fill="#dc2ade" d="M 118.617188 159.566406 C 105.742188 159.566406 95.199219 170.089844 95.199219 182.941406 L 95.199219 264.753906 L 101.054688 264.753906 C 120.515625 264.753906 136.179688 280.390625 136.179688 299.816406 C 136.179688 319.242188 120.515625 334.878906 101.054688 334.878906 L 95.199219 334.878906 L 95.199219 416.691406 C 95.199219 429.542969 105.742188 440.066406 118.617188 440.066406 L 481.605469 440.066406 C 494.480469 440.066406 505.023438 429.542969 505.023438 416.691406 L 505.023438 334.878906 L 499.171875 334.878906 C 479.707031 334.878906 464.042969 319.242188 464.042969 299.816406 C 464.042969 280.390625 479.707031 264.753906 499.171875 264.753906 L 505.023438 264.753906 L 505.023438 182.941406 C 505.023438 170.089844 494.480469 159.566406 481.605469 159.566406 Z M 118.617188 171.253906 L 206.4375 171.253906 C 206.4375 174.472656 209.066406 177.097656 212.292969 177.097656 C 215.515625 177.097656 218.148438 174.472656 218.148438 171.253906 L 481.605469 171.253906 C 488.148438 171.253906 493.316406 176.414062 493.316406 182.941406 L 493.316406 254.253906 C 470.398438 257.265625 452.332031 276.144531 452.332031 299.816406 C 452.332031 323.488281 470.398438 342.367188 493.316406 345.378906 L 493.316406 416.691406 C 493.316406 423.21875 488.148438 428.378906 481.605469 428.378906 L 218.148438 428.378906 C 218.148438 425.160156 215.515625 422.535156 212.292969 422.535156 C 209.066406 422.535156 206.4375 425.160156 206.4375 428.378906 L 118.617188 428.378906 C 112.078125 428.378906 106.90625 423.21875 106.90625 416.691406 L 106.90625 345.378906 C 129.824219 342.367188 147.890625 323.488281 147.890625 299.816406 C 147.890625 276.144531 129.824219 257.265625 106.90625 254.253906 L 106.90625 182.941406 C 106.90625 176.414062 112.078125 171.253906 118.617188 171.253906 Z M 212.292969 188.785156 C 209.066406 188.785156 206.4375 191.410156 206.4375 194.628906 C 206.4375 197.847656 209.066406 200.472656 212.292969 200.472656 C 215.515625 200.472656 218.148438 197.847656 218.148438 194.628906 C 218.148438 191.410156 215.515625 188.785156 212.292969 188.785156 Z M 212.292969 212.160156 C 209.066406 212.160156 206.4375 214.785156 206.4375 218.003906 C 206.4375 221.222656 209.066406 223.847656 212.292969 223.847656 C 215.515625 223.847656 218.148438 221.222656 218.148438 218.003906 C 218.148438 214.785156 215.515625 212.160156 212.292969 212.160156 Z M 212.292969 235.535156 C 209.066406 235.535156 206.4375 238.160156 206.4375 241.378906 C 206.4375 244.597656 209.066406 247.222656 212.292969 247.222656 C 215.515625 247.222656 218.148438 244.597656 218.148438 241.378906 C 218.148438 238.160156 215.515625 235.535156 212.292969 235.535156 Z M 212.292969 258.910156 C 209.066406 258.910156 206.4375 261.535156 206.4375 264.753906 C 206.4375 267.972656 209.066406 270.597656 212.292969 270.597656 C 215.515625 270.597656 218.148438 267.972656 218.148438 264.753906 C 218.148438 261.535156 215.515625 258.910156 212.292969 258.910156 Z M 212.292969 282.285156 C 209.066406 282.285156 206.4375 284.910156 206.4375 288.128906 C 206.4375 291.347656 209.066406 293.972656 212.292969 293.972656 C 215.515625 293.972656 218.148438 291.347656 218.148438 288.128906 C 218.148438 284.910156 215.515625 282.285156 212.292969 282.285156 Z M 212.292969 305.660156 C 209.066406 305.660156 206.4375 308.285156 206.4375 311.503906 C 206.4375 314.722656 209.066406 317.347656 212.292969 317.347656 C 215.515625 317.347656 218.148438 314.722656 218.148438 311.503906 C 218.148438 308.285156 215.515625 305.660156 212.292969 305.660156 Z M 212.292969 329.035156 C 209.066406 329.035156 206.4375 331.660156 206.4375 334.878906 C 206.4375 338.097656 209.066406 340.722656 212.292969 340.722656 C 215.515625 340.722656 218.148438 338.097656 218.148438 334.878906 C 218.148438 331.660156 215.515625 329.035156 212.292969 329.035156 Z M 212.292969 352.410156 C 209.066406 352.410156 206.4375 355.035156 206.4375 358.253906 C 206.4375 361.472656 209.066406 364.097656 212.292969 364.097656 C 215.515625 364.097656 218.148438 361.472656 218.148438 358.253906 C 218.148438 355.035156 215.515625 352.410156 212.292969 352.410156 Z M 212.292969 375.785156 C 209.066406 375.785156 206.4375 378.410156 206.4375 381.628906 C 206.4375 384.847656 209.066406 387.472656 212.292969 387.472656 C 215.515625 387.472656 218.148438 384.847656 218.148438 381.628906 C 218.148438 378.410156 215.515625 375.785156 212.292969 375.785156 Z M 212.292969 399.160156 C 209.066406 399.160156 206.4375 401.785156 206.4375 405.003906 C 206.4375 408.222656 209.066406 410.847656 212.292969 410.847656 C 215.515625 410.847656 218.148438 408.222656 218.148438 405.003906 C 218.148438 401.785156 215.515625 399.160156 212.292969 399.160156 Z M 212.292969 399.160156 " fill-opacity="1" fill-rule="nonzero"/></g></svg>