<svg width="29" height="24" viewBox="0 0 29 24" fill="none" xmlns="http://www.w3.org/2000/svg">
<path fill-rule="evenodd" clip-rule="evenodd" d="M14.5 1.25C12.9778 1.25 11.5179 1.75044 10.4415 2.64124C9.36511 3.53204 8.7604 4.74022 8.7604 6C8.7604 7.25978 9.36511 8.46796 10.4415 9.35876C11.5179 10.2496 12.9778 10.75 14.5 10.75C16.0222 10.75 17.4821 10.2496 18.5585 9.35876C19.6349 8.46796 20.2396 7.25978 20.2396 6C20.2396 4.74022 19.6349 3.53204 18.5585 2.64124C17.4821 1.75044 16.0222 1.25 14.5 1.25ZM10.5729 6C10.5729 5.13805 10.9866 4.3114 11.7231 3.7019C12.4596 3.09241 13.4585 2.75 14.5 2.75C15.5415 2.75 16.5404 3.09241 17.2769 3.7019C18.0133 4.3114 18.4271 5.13805 18.4271 6C18.4271 6.86195 18.0133 7.6886 17.2769 8.2981C16.5404 8.90759 15.5415 9.25 14.5 9.25C13.4585 9.25 12.4596 8.90759 11.7231 8.2981C10.9866 7.6886 10.5729 6.86195 10.5729 6ZM14.5 12.25C11.7051 12.25 9.12894 12.776 7.22099 13.664C5.34082 14.54 3.92707 15.866 3.92707 17.5V17.602C3.92586 18.764 3.92465 20.222 5.47011 21.264C6.23015 21.776 7.29469 22.141 8.73261 22.381C10.1729 22.623 12.0519 22.75 14.5 22.75C16.9481 22.75 18.8258 22.623 20.2686 22.381C21.7065 22.141 22.7698 21.776 23.5311 21.264C25.0765 20.222 25.0741 18.764 25.0729 17.602V17.5C25.0729 15.866 23.6592 14.54 21.7802 13.664C19.871 12.776 17.2961 12.25 14.5 12.25ZM5.73957 17.5C5.73957 16.649 6.49115 15.725 8.10911 14.972C9.69928 14.232 11.9564 13.75 14.5012 13.75C17.0435 13.75 19.3007 14.232 20.8909 14.972C22.51 15.725 23.2604 16.649 23.2604 17.5C23.2604 18.808 23.2121 19.544 22.3856 20.1C21.9385 20.402 21.1893 20.697 19.9085 20.911C18.6313 21.125 16.8852 21.25 14.5 21.25C12.1147 21.25 10.3675 21.125 9.09149 20.911C7.81065 20.697 7.06149 20.402 6.6144 20.101C5.7879 19.544 5.73957 18.808 5.73957 17.5Z" fill="#4D089A"/>
</svg>
